<svg xmlns="http://www.w3.org/2000/svg" viewBox="0 0 43.036 47.647">
  <g id="check-list-and-pencil-svgrepo-com" transform="translate(-16.48)">
    <path id="Path_1059" data-name="Path 1059" d="M154.842,87.907l-5.15-5.149a1.192,1.192,0,0,0-1.685,0l-4.579,4.579h0L131.678,99.087a1.193,1.193,0,0,0-.333.65l-1.01,6.159a1.192,1.192,0,0,0,1.176,1.384,1.179,1.179,0,0,0,.193-.016l6.159-1.01a1.192,1.192,0,0,0,.65-.333l16.329-16.33a1.192,1.192,0,0,0,0-1.685ZM137.1,103.965l-4.144.679.679-4.144,10.635-10.635,3.464,3.464Zm12.32-12.32-3.464-3.464,2.9-2.9,3.464,3.464Z" transform="translate(-95.675 -69.624)" fill="#424244"/>
    <path id="Path_1060" data-name="Path 1060" d="M53.359,30.293a1.186,1.186,0,0,0-1.194,1.178v13.82h-33.3V2.356h33.3v7.679a1.194,1.194,0,0,0,2.388,0V1.178A1.186,1.186,0,0,0,53.359,0H17.674A1.186,1.186,0,0,0,16.48,1.178V46.469a1.186,1.186,0,0,0,1.194,1.178H53.359a1.186,1.186,0,0,0,1.194-1.178v-15A1.186,1.186,0,0,0,53.359,30.293Z" transform="translate(0)" fill="#424244"/>
    <path id="Path_1061" data-name="Path 1061" d="M61.406,40.26a1.192,1.192,0,0,0-1.685,0L55.179,44.8l-1.8-1.8A1.192,1.192,0,0,0,51.7,44.69l2.64,2.64a1.192,1.192,0,0,0,1.686,0l5.384-5.384A1.192,1.192,0,0,0,61.406,40.26Z" transform="translate(-29.327 -33.569)" fill="#424244"/>
    <path id="Path_1062" data-name="Path 1062" d="M61.406,128.609a1.192,1.192,0,0,0-1.685,0l-4.541,4.542-1.8-1.8a1.192,1.192,0,0,0-1.685,1.685l2.64,2.64a1.192,1.192,0,0,0,1.686,0l5.384-5.384A1.192,1.192,0,0,0,61.406,128.609Z" transform="translate(-29.327 -108.158)" fill="#424244"/>
    <path id="Path_1063" data-name="Path 1063" d="M59.721,216.958,55.179,221.5l-1.8-1.8a1.192,1.192,0,0,0-1.685,1.685l2.64,2.64a1.192,1.192,0,0,0,1.686,0l5.384-5.384a1.192,1.192,0,1,0-1.686-1.685Z" transform="translate(-29.327 -182.742)" fill="#424244"/>
  </g>
</svg>
