<svg xmlns="http://www.w3.org/2000/svg" viewBox="0 0 59.876 47.612">
  <g id="Group_440" data-name="Group 440" transform="translate(-96.356 -33.935)">
    <path id="Path_459" data-name="Path 459" d="M122.564,118.4H104.5v-14.74a7.159,7.159,0,0,1,7.155-7.155h0" transform="translate(-4.5 -37.638)" fill="none" stroke="#434241" stroke-linecap="round" stroke-linejoin="round" stroke-miterlimit="10" stroke-width="1.5"/>
    <path id="Path_460" data-name="Path 460" d="M135.3,101.6a7.1,7.1,0,0,1,2.229,5.2v11.182" transform="translate(-23.257 -40.744)" fill="none" stroke="#434241" stroke-linecap="round" stroke-linejoin="round" stroke-miterlimit="10" stroke-width="1.5"/>
    <path id="Path_461" data-name="Path 461" d="M203.135,101.6a7.1,7.1,0,0,1,2.229,5.2v14.74H187.3" transform="translate(-54.926 -40.744)" fill="none" stroke="#434241" stroke-linecap="round" stroke-linejoin="round" stroke-miterlimit="10" stroke-width="1.5"/>
    <path id="Path_462" data-name="Path 462" d="M211.052,75.2a6.473,6.473,0,0,1,.117,1.251,7.142,7.142,0,0,1-7.116,7.116h0a7.013,7.013,0,0,0-7.155,7.155v11.221" transform="translate(-60.77 -24.666)" fill="none" stroke="#434241" stroke-linecap="round" stroke-linejoin="round" stroke-miterlimit="10" stroke-width="1.5"/>
    <path id="Path_463" data-name="Path 463" d="M176.155,118.4v-14.74A7.159,7.159,0,0,0,169,96.5h0" transform="translate(-43.781 -37.638)" fill="none" stroke="#434241" stroke-linecap="round" stroke-linejoin="round" stroke-miterlimit="10" stroke-width="1.5"/>
    <path id="Path_464" data-name="Path 464" d="M153.029,101.6a7.1,7.1,0,0,0-2.229,5.2v14.74" transform="translate(-32.697 -40.744)" fill="none" stroke="#434241" stroke-linecap="round" stroke-linejoin="round" stroke-miterlimit="10" stroke-width="1.5"/>
    <path id="Path_465" data-name="Path 465" d="M153.068,65.1a6.991,6.991,0,0,0-2.268,5.2,7.116,7.116,0,0,0,7.116,7.116" transform="translate(-32.697 -18.515)" fill="none" stroke="#434241" stroke-linecap="round" stroke-linejoin="round" stroke-miterlimit="10" stroke-width="1.5"/>
    <path id="Path_466" data-name="Path 466" d="M181.674,75.227a7.185,7.185,0,0,0,1.994-4.926,7.055,7.055,0,0,0-2.268-5.2" transform="translate(-51.333 -18.515)" fill="none" stroke="#434241" stroke-linecap="round" stroke-linejoin="round" stroke-miterlimit="10" stroke-width="1.5"/>
    <path id="Path_467" data-name="Path 467" d="M211.233,53.758H197.9V52.116A7.116,7.116,0,0,1,205.016,45h0a7.09,7.09,0,0,1,6.451,4.144" transform="translate(-61.381 -6.274)" fill="none" stroke="#434241" stroke-linecap="round" stroke-linejoin="round" stroke-miterlimit="10" stroke-width="1.5"/>
    <path id="Path_468" data-name="Path 468" d="M231.181,61.4h4.926v2.385H229.5" transform="translate(-80.626 -16.262)" fill="none" stroke="#434241" stroke-linecap="round" stroke-linejoin="round" stroke-miterlimit="10" stroke-width="1.5"/>
    <path id="Path_469" data-name="Path 469" d="M99.961,51.59a9.929,9.929,0,1,1,17.008-6.96,9.691,9.691,0,0,1-.9,4.105" fill="none" stroke="#434241" stroke-linecap="round" stroke-linejoin="round" stroke-miterlimit="10" stroke-width="1.5"/>
    <path id="Path_470" data-name="Path 470" d="M126.749,63.3A7.106,7.106,0,0,1,122.8,76.32" transform="translate(-15.645 -17.419)" fill="none" stroke="#434241" stroke-linecap="round" stroke-linejoin="round" stroke-miterlimit="10" stroke-width="1.5"/>
    <path id="Path_471" data-name="Path 471" d="M106.594,72.364A7.106,7.106,0,0,1,110.66,60.4" transform="translate(-4.56 -15.652)" fill="none" stroke="#434241" stroke-linecap="round" stroke-linejoin="round" stroke-miterlimit="10" stroke-width="1.5"/>
    <path id="Path_472" data-name="Path 472" d="M121.273,59.7a10.273,10.273,0,0,1-1.173.313" transform="translate(-14 -15.226)" fill="none" stroke="#434241" stroke-linecap="round" stroke-linejoin="round" stroke-miterlimit="10" stroke-width="1.5"/>
    <path id="Path_473" data-name="Path 473" d="M127.657,37.7a7.815,7.815,0,0,1,.274,1.916A7.068,7.068,0,0,1,123.2,46.3" transform="translate(-15.888 -1.828)" fill="none" stroke="#434241" stroke-linecap="round" stroke-linejoin="round" stroke-miterlimit="10" stroke-width="1.5"/>
    <path id="Path_474" data-name="Path 474" d="M103.8,41.837a8.985,8.985,0,0,1,10.987,3.441" transform="translate(-4.073 -3.932)" fill="none" stroke="#434241" stroke-linecap="round" stroke-linejoin="round" stroke-miterlimit="10" stroke-width="1.5"/>
    <circle id="Ellipse_193" data-name="Ellipse 193" cx="0.86" cy="0.86" r="0.86" transform="translate(124.164 66.017)" fill="none" stroke="#434241" stroke-linecap="round" stroke-linejoin="round" stroke-miterlimit="10" stroke-width="1.5"/>
    <circle id="Ellipse_194" data-name="Ellipse 194" cx="0.86" cy="0.86" r="0.86" transform="translate(124.164 71.139)" fill="none" stroke="#434241" stroke-linecap="round" stroke-linejoin="round" stroke-miterlimit="10" stroke-width="1.5"/>
    <circle id="Ellipse_195" data-name="Ellipse 195" cx="0.86" cy="0.86" r="0.86" transform="translate(124.164 76.261)" fill="none" stroke="#434241" stroke-linecap="round" stroke-linejoin="round" stroke-miterlimit="10" stroke-width="1.5"/>
    <path id="Path_475" data-name="Path 475" d="M164.582,56.627a2.486,2.486,0,0,1-2.072,1.056h-7.468a2.536,2.536,0,0,1-2.541-2.541h0a2.536,2.536,0,0,1,2.541-2.541h6.178" transform="translate(-33.732 -10.902)" fill="none" stroke="#434241" stroke-linecap="round" stroke-linejoin="round" stroke-miterlimit="10" stroke-width="1.5"/>
    <path id="Path_476" data-name="Path 476" d="M172.181,52.7a6.525,6.525,0,0,0,.938-7c-.313,2.972-4.105,2.737-4.105,2.737s-3.714-.274-3.714,3.128" transform="translate(-41.527 -6.7)" fill="none" stroke="#434241" stroke-linecap="round" stroke-linejoin="round" stroke-miterlimit="10" stroke-width="1.5"/>
    <path id="Path_477" data-name="Path 477" d="M199.094,77.115a7.185,7.185,0,0,1-1.994-4.926,6.966,6.966,0,0,1,1.212-3.988" transform="translate(-60.894 -20.403)" fill="none" stroke="#434241" stroke-linecap="round" stroke-linejoin="round" stroke-miterlimit="10" stroke-width="1.5"/>
  </g>
</svg>
