<svg id="accounts" xmlns="http://www.w3.org/2000/svg" viewBox="0 0 48.476 48.308">
  <path id="Path_995" data-name="Path 995" d="M15.935,18.826h0c-.168-2.852-4.193-4.026-7.884-4.026S.168,16.142,0,18.826H0v.335H0V34.09H0c0,2.852,4.193,4.193,7.884,4.193s7.884-1.342,7.884-4.193h0V18.826ZM12.58,23.69A8.159,8.159,0,0,1,8.051,24.7a8.962,8.962,0,0,1-4.7-1.006V22.516a13.471,13.471,0,0,0,4.529.671,13.471,13.471,0,0,0,4.529-.671V23.69Zm0,5.032a8.159,8.159,0,0,1-4.529,1.006c-2.516,0-4.361-.5-4.7-1.006V27.38a13.471,13.471,0,0,0,4.529.671,13.471,13.471,0,0,0,4.529-.671v1.342Zm-.5-9.729a9.923,9.923,0,0,1-4.193.839,7.845,7.845,0,0,1-4.193-.839,9.922,9.922,0,0,1,4.193-.839,9.923,9.923,0,0,1,4.193.839ZM3.355,33.754V32.412a13.471,13.471,0,0,0,4.529.671,13.471,13.471,0,0,0,4.529-.671v1.342a8.159,8.159,0,0,1-4.529,1.006C5.368,34.761,3.69,34.257,3.355,33.754Z" transform="translate(0 10.025)" fill="#424244"/>
  <g id="Group_2279" data-name="Group 2279" transform="translate(15.935)">
    <path id="Path_996" data-name="Path 996" d="M36.17,35.728c3.522-5.535,5.871-12.916,5.871-16.606,0-5.535-4.361-10.232-10.567-12.077v-.5C31.473,3.858,29.293,0,25.77,0s-5.7,3.858-5.7,6.542v.5C13.693,8.89,9.5,13.587,9.5,19.122c0,3.858,2.181,10.4,5.032,15.432.168.168.168.5.335.671a5.777,5.777,0,0,1,1.006,2.684,3.99,3.99,0,0,0-.839,2.348c0,3.522,3.858,5.368,10.567,5.368S36.17,43.611,36.17,40.257a4.425,4.425,0,0,0-.839-2.516C35.5,37.405,35.667,36.734,36.17,35.728ZM33.151,34.05c-1.845,3.522-1.174,5.2-1.006,5.368.5.335.671.5.671.839,0,1.174-3.187,2.013-7.213,2.013s-7.213-1.006-7.213-2.013c0-.335.168-.5.5-.839h0s1.006-1.845-1.342-5.871a.616.616,0,0,1-.168-.5,34.636,34.636,0,0,1-4.7-13.922c0-4.864,4.864-8.722,11.071-9.393V7.884a1.9,1.9,0,0,1-.5-1.342c0-1.174,1.006-3.187,2.348-3.187s2.348,2.013,2.348,3.187a1.905,1.905,0,0,1-.5,1.342V9.729c6.374.671,11.071,4.529,11.071,9.393A32.373,32.373,0,0,1,33.151,34.05Z" transform="translate(-9.5)" fill="#424244"/>
    <path id="Path_997" data-name="Path 997" d="M24.224,8.942a11.616,11.616,0,0,1-6.374,0,1.562,1.562,0,0,0-2.013,1.006,1.744,1.744,0,0,0,1.006,2.181,15.012,15.012,0,0,0,4.193.671,13.556,13.556,0,0,0,4.193-.671A1.822,1.822,0,0,0,26.4,10.117a1.644,1.644,0,0,0-2.181-1.174Z" transform="translate(-5.27 5.986)" fill="#424244"/>
  </g>
</svg>
