<svg xmlns="http://www.w3.org/2000/svg" viewBox="0 0 44.259 49.517">
  <path id="cube-svgrepo-com" d="M46.759,11.43c0-.013,0-.025-.006-.038a.85.85,0,0,0-.026-.176.745.745,0,0,0-.028-.07.776.776,0,0,0-.058-.127c-.015-.025-.033-.046-.049-.068a.821.821,0,0,0-.083-.1.77.77,0,0,0-.069-.056c-.022-.017-.041-.038-.064-.053s-.029-.012-.043-.02-.02-.016-.032-.022L24.421.082A.8.8,0,0,0,23.7.093L3.437,10.712c-.009,0-.015.012-.023.017s-.019.007-.029.013a.746.746,0,0,0-.074.06c-.024.019-.049.036-.071.057a.791.791,0,0,0-.08.1.8.8,0,0,0-.049.068.758.758,0,0,0-.058.137c-.007.02-.018.038-.023.06A.821.821,0,0,0,3,11.436V37.575a.818.818,0,0,0,.448.731L24.517,48.925c.012.006.025,0,.037.009a.813.813,0,0,0,.325.077.8.8,0,0,0,.325-.078c.012-.006.026,0,.037-.009L46.311,38.305a.816.816,0,0,0,.448-.73V11.43ZM24.083,1.73l20.026,9.72L24.88,21.142,5.594,11.422ZM4.621,12.758l19.449,9.8V46.873L4.621,37.07ZM45.139,37.07l-19.449,9.8V22.56l19.449-9.8Z" transform="translate(-2.75 0.256)" fill="#424244" stroke="#424244" stroke-width="0.5"/>
</svg>
