<svg xmlns="http://www.w3.org/2000/svg" viewBox="0 0 54.026 39.827">
  <g id="community-posts" transform="translate(-6.219 97.001)">
    <path id="Path_1506" data-name="Path 1506" d="M40.007,9.265a7.687,7.687,0,0,1,6.224,8.071l-.058.864c-.163,1.837,1.145,2.754,2.45,3.495l4.488,2.7c1.356.682,1.115,1.761-.125,2.237l-4.818,2.127c-1.308.724-2.861.83-2.941,3.224l-.047.682a7.685,7.685,0,0,1-8.188,7.139l-15.332-1.05a7.685,7.685,0,0,1-6.554-4.676,8.953,8.953,0,0,0,2.749.141q7.757-.869,15.5-1.884a9.728,9.728,0,0,0,8.166-10.426Q40.812,15.583,40,9.265Zm-.291,12.744a7.689,7.689,0,0,1-6.7,8.554L17.76,32.417a7.689,7.689,0,0,1-8.554-6.7l-.1-.859c-.185-1.834-1.643-2.49-3.064-2.971L1.123,20.074c-1.461-.413-1.426-1.518-.3-2.218l4.332-3C6.3,13.9,7.81,13.505,7.435,11.141l-.083-.677a7.689,7.689,0,0,1,6.7-8.556L29.308.056a7.687,7.687,0,0,1,8.554,6.7l1.854,15.254Zm-9.151-9.294c.845,0,1.082.581.528,1.311L29,16.393a2.842,2.842,0,0,0-.636,2.626l.736,3.09c.15.787-.316,1.313-.989.907L25.247,21.8a3.229,3.229,0,0,0-2.771.27l-2.738,1.609c-.671.439-1.281.178-1.14-.726l.256-3.15A3.006,3.006,0,0,0,17.8,17.177l-2.366-2.1c-.731-.551-.469-1.165.318-1.311l3.09-.736a4.127,4.127,0,0,0,2.183-1.726L22.183,8.3c.349-.817.9-.7,1.341-.033l1.611,2.739a3.242,3.242,0,0,0,2.277,1.453l3.152.256Z" transform="translate(6.219 -97)" fill="#424244" fill-rule="evenodd"/>
  </g>
</svg>
