<svg xmlns="http://www.w3.org/2000/svg" viewBox="0 0 58.685 47.252">
  <g id="manage-site-stock" transform="translate(1010.856 -600.92)">
    <rect id="Rectangle_2306" data-name="Rectangle 2306" width="57.185" height="35.675" rx="5.857" transform="translate(-1010.106 601.67)" fill="none" stroke="#434241" stroke-linecap="round" stroke-linejoin="round" stroke-width="1.5"/>
    <path id="Path_1307" data-name="Path 1307" d="M-939.748,695.586v4.749c0,.254-11.289.23-11.289,0V693.5" transform="translate(-36.121 -56.155)" fill="none" stroke="#434241" stroke-linecap="round" stroke-linejoin="round" stroke-width="1.5"/>
    <line id="Line_779" data-name="Line 779" x2="5.168" transform="translate(-999.775 632.069)" fill="none" stroke="#434241" stroke-linecap="round" stroke-linejoin="round" stroke-width="1.5"/>
    <line id="Line_780" data-name="Line 780" x2="23.728" transform="translate(-992.325 632.036)" fill="none" stroke="#434241" stroke-linecap="round" stroke-linejoin="round" stroke-width="1.5"/>
    <line id="Line_781" data-name="Line 781" x2="5.168" transform="translate(-999.775 629.399)" fill="none" stroke="#434241" stroke-linecap="round" stroke-linejoin="round" stroke-width="1.5"/>
    <line id="Line_782" data-name="Line 782" x2="23.728" transform="translate(-992.325 629.366)" fill="none" stroke="#434241" stroke-linecap="round" stroke-linejoin="round" stroke-width="1.5"/>
    <g id="Group_2887" data-name="Group 2887" transform="translate(-959.425 628.627)">
      <path id="Path_1308" data-name="Path 1308" d="M-878.752,679.478l-.449-.777-.45-.777h1.8l-.449.777Z" transform="translate(879.651 -675.257)" fill="#434241"/>
      <path id="Path_1309" data-name="Path 1309" d="M-878.632,671.06l.449.777.45.777h-1.8l.45-.777Z" transform="translate(879.578 -671.06)" fill="#434241"/>
    </g>
    <rect id="Rectangle_2307" data-name="Rectangle 2307" width="4.662" height="4.662" transform="translate(-965.755 628.406)" fill="none" stroke="#434241" stroke-linecap="round" stroke-linejoin="round" stroke-width="1.5"/>
    <rect id="Rectangle_2308" data-name="Rectangle 2308" width="2.726" height="2.726" transform="translate(-1004.873 629.375)" fill="none" stroke="#434241" stroke-linecap="round" stroke-linejoin="round" stroke-width="1.5"/>
    <line id="Line_783" data-name="Line 783" x2="5.168" transform="translate(-999.775 624.699)" fill="none" stroke="#434241" stroke-linecap="round" stroke-linejoin="round" stroke-width="1.5"/>
    <line id="Line_784" data-name="Line 784" x2="23.728" transform="translate(-992.325 624.666)" fill="none" stroke="#434241" stroke-linecap="round" stroke-linejoin="round" stroke-width="1.5"/>
    <line id="Line_785" data-name="Line 785" x2="5.168" transform="translate(-999.775 622.029)" fill="none" stroke="#434241" stroke-linecap="round" stroke-linejoin="round" stroke-width="1.5"/>
    <line id="Line_786" data-name="Line 786" x2="23.728" transform="translate(-992.325 621.996)" fill="none" stroke="#434241" stroke-linecap="round" stroke-linejoin="round" stroke-width="1.5"/>
    <g id="Group_2888" data-name="Group 2888" transform="translate(-959.425 621.257)">
      <path id="Path_1310" data-name="Path 1310" d="M-878.752,660.506l-.449-.777-.45-.777h1.8l-.449.777Z" transform="translate(879.651 -656.285)" fill="#434241"/>
      <path id="Path_1311" data-name="Path 1311" d="M-878.632,652.088l.449.777.45.777h-1.8l.45-.777Z" transform="translate(879.578 -652.088)" fill="#434241"/>
    </g>
    <rect id="Rectangle_2309" data-name="Rectangle 2309" width="4.662" height="4.662" transform="translate(-965.755 621.036)" fill="none" stroke="#434241" stroke-linecap="round" stroke-linejoin="round" stroke-width="1.5"/>
    <rect id="Rectangle_2310" data-name="Rectangle 2310" width="2.726" height="2.726" transform="translate(-1004.873 622.004)" fill="none" stroke="#434241" stroke-linecap="round" stroke-linejoin="round" stroke-width="1.5"/>
    <line id="Line_787" data-name="Line 787" x2="5.168" transform="translate(-999.775 617.285)" fill="none" stroke="#434241" stroke-linecap="round" stroke-linejoin="round" stroke-width="1.5"/>
    <line id="Line_788" data-name="Line 788" x2="23.728" transform="translate(-992.325 617.252)" fill="none" stroke="#434241" stroke-linecap="round" stroke-linejoin="round" stroke-width="1.5"/>
    <line id="Line_789" data-name="Line 789" x2="5.168" transform="translate(-999.775 614.615)" fill="none" stroke="#434241" stroke-linecap="round" stroke-linejoin="round" stroke-width="1.5"/>
    <line id="Line_790" data-name="Line 790" x2="23.728" transform="translate(-992.325 614.582)" fill="none" stroke="#434241" stroke-linecap="round" stroke-linejoin="round" stroke-width="1.5"/>
    <g id="Group_2889" data-name="Group 2889" transform="translate(-959.425 613.844)">
      <path id="Path_1312" data-name="Path 1312" d="M-878.752,641.423l-.449-.777-.45-.777h1.8l-.449.777Z" transform="translate(879.651 -637.203)" fill="#434241"/>
      <path id="Path_1313" data-name="Path 1313" d="M-878.632,633.006l.449.777.45.777h-1.8l.45-.777Z" transform="translate(879.578 -633.006)" fill="#434241"/>
    </g>
    <rect id="Rectangle_2311" data-name="Rectangle 2311" width="4.662" height="4.662" transform="translate(-965.755 613.623)" fill="none" stroke="#434241" stroke-linecap="round" stroke-linejoin="round" stroke-width="1.5"/>
    <rect id="Rectangle_2312" data-name="Rectangle 2312" width="2.726" height="2.726" transform="translate(-1004.873 614.591)" fill="none" stroke="#434241" stroke-linecap="round" stroke-linejoin="round" stroke-width="1.5"/>
    <line id="Line_791" data-name="Line 791" x2="5.168" transform="translate(-999.775 609.872)" fill="none" stroke="#434241" stroke-linecap="round" stroke-linejoin="round" stroke-width="1.5"/>
    <line id="Line_792" data-name="Line 792" x2="23.728" transform="translate(-992.325 609.839)" fill="none" stroke="#434241" stroke-linecap="round" stroke-linejoin="round" stroke-width="1.5"/>
    <line id="Line_793" data-name="Line 793" x2="5.168" transform="translate(-999.775 607.202)" fill="none" stroke="#434241" stroke-linecap="round" stroke-linejoin="round" stroke-width="1.5"/>
    <line id="Line_794" data-name="Line 794" x2="23.728" transform="translate(-992.325 607.169)" fill="none" stroke="#434241" stroke-linecap="round" stroke-linejoin="round" stroke-width="1.5"/>
    <g id="Group_2890" data-name="Group 2890" transform="translate(-959.425 606.43)">
      <path id="Path_1314" data-name="Path 1314" d="M-878.752,622.34l-.449-.777-.45-.777h1.8l-.449.777Z" transform="translate(879.651 -618.12)" fill="#434241"/>
      <path id="Path_1315" data-name="Path 1315" d="M-878.632,613.923l.449.777.45.777h-1.8l.45-.777Z" transform="translate(879.578 -613.923)" fill="#434241"/>
    </g>
    <rect id="Rectangle_2313" data-name="Rectangle 2313" width="4.662" height="4.662" transform="translate(-965.755 606.209)" fill="none" stroke="#434241" stroke-linecap="round" stroke-linejoin="round" stroke-width="1.5"/>
    <rect id="Rectangle_2314" data-name="Rectangle 2314" width="2.726" height="2.726" transform="translate(-1004.873 607.178)" fill="none" stroke="#434241" stroke-linecap="round" stroke-linejoin="round" stroke-width="1.5"/>
    <path id="Path_1316" data-name="Path 1316" d="M-948.524,704.31c3.126.58,5.138,1.487,5.138,2.507,0,1.752-5.937,3.171-13.261,3.171s-13.262-1.42-13.262-3.171c0-1.121,2.432-2.106,6.1-2.67l1.191-.164" transform="translate(-24.581 -62.565)" fill="none" stroke="#434241" stroke-linecap="round" stroke-linejoin="round" stroke-width="1.5"/>
  </g>
</svg>
