<svg xmlns="http://www.w3.org/2000/svg" viewBox="0 0 51.42 51.42">
  <g id="meters" transform="translate(0.35 0.35)">
    <path id="Path_1075" data-name="Path 1075" d="M43.292,7.428A25.36,25.36,0,1,0,7.428,43.292,25.36,25.36,0,1,0,43.292,7.428ZM25.36,49.1A23.741,23.741,0,1,1,49.1,25.36,23.768,23.768,0,0,1,25.36,49.1Z" fill="#424244" stroke="#424244" stroke-width="0.7"/>
    <path id="Path_1077" data-name="Path 1077" d="M110.98,87.883c-.01-.021-.021-.042-.033-.063a.82.82,0,0,0-.048-.072,16.874,16.874,0,0,0-6.048-5.972.8.8,0,0,0-.073-.047c-.021-.012-.042-.022-.064-.032a17.013,17.013,0,0,0-16.726,0c-.021.01-.043.02-.063.032a.845.845,0,0,0-.073.047,16.874,16.874,0,0,0-6.048,5.972.787.787,0,0,0-.048.072c-.012.021-.023.042-.033.063a16.434,16.434,0,0,0,.037,16.578.825.825,0,0,0,1.209.234l2.243-1.279a.8.8,0,0,0,.3-1.1.819.819,0,0,0-1.11-.294l-1.622.925a14.86,14.86,0,0,1-1.631-6.008h1.874a.8.8,0,1,0,0-1.605H81.147a14.781,14.781,0,0,1,1.632-6.008l1.622.925a.819.819,0,0,0,1.11-.294.8.8,0,0,0-.3-1.1L83.6,87.941a15.252,15.252,0,0,1,4.453-4.4l.935,1.6a.819.819,0,0,0,1.11.294.8.8,0,0,0,.3-1.1l-.936-1.6a15.268,15.268,0,0,1,6.085-1.612v1.851a.813.813,0,0,0,1.626,0V81.127a15.268,15.268,0,0,1,6.085,1.612l-.936,1.6a.8.8,0,0,0,.3,1.1.819.819,0,0,0,1.11-.294l.935-1.6a15.253,15.253,0,0,1,4.453,4.4l-1.619.923a.8.8,0,0,0-.3,1.1.819.819,0,0,0,1.11.294l1.622-.925a14.784,14.784,0,0,1,1.632,6.008h-1.874a.8.8,0,1,0,0,1.605h1.874a14.9,14.9,0,0,1-1.629,6.009l-1.624-.926a.818.818,0,0,0-1.11.294.8.8,0,0,0,.3,1.1l2.346,1.338a.819.819,0,0,0,1.11-.293,16.445,16.445,0,0,0,.033-16.578Z" transform="translate(-70.993 -70.848)" fill="#424244" stroke="#424244" stroke-width="0.7"/>
    <path id="Path_1078" data-name="Path 1078" d="M159.115,188.306a.8.8,0,0,0-1.091.311l-1.239,2.222a2.405,2.405,0,0,0-2.771,2.813l-6.653,3.841a.8.8,0,1,0,.8,1.39l6.654-3.842a2.405,2.405,0,0,0,3.821-.993l2.544.038h.012a.8.8,0,0,0,.8-.789,5.61,5.61,0,0,0-2.882-4.991Zm-2.735,5.709a.8.8,0,1,1,.385-1.507l.006,0a.8.8,0,0,1,.412.7s0,.007,0,.01A.8.8,0,0,1,156.38,194.015Zm2.281-1.571a2.408,2.408,0,0,0-.475-.822l.81-1.453a4.011,4.011,0,0,1,1.327,2.3Z" transform="translate(-131.043 -167.848)" fill="#424244" stroke="#424244" stroke-width="0.7"/>
    <path id="Path_1079" data-name="Path 1079" d="M207.752,375.5h-5.6a.8.8,0,0,0,0,1.605h5.6a.8.8,0,1,0,0-1.605Z" transform="translate(-179.593 -334.966)" fill="#424244" stroke="#424244" stroke-width="0.7"/>
    <path id="Path_1080" data-name="Path 1080" d="M215.611,347.105a.8.8,0,1,0,0-1.605h-3.456a.8.8,0,1,0,0,1.605Z" transform="translate(-188.523 -308.205)" fill="#424244" stroke="#424244" stroke-width="0.7"/>
  </g>
</svg>
