<svg xmlns="http://www.w3.org/2000/svg" viewBox="0 0 50.96 50.83">
  <g id="preventive-maintenance1" transform="translate(1.002 0.996)">
    <path id="Path_1034" data-name="Path 1034" d="M35.461,26.893l-3.271,3.271L28.916,26.89l7.856-7.856A9.684,9.684,0,0,0,48.412,6.176l-.8-2.045L42.469,9.272l-2.076-.556L39.836,6.64,44.978,1.5,42.933.7A9.684,9.684,0,0,0,30.075,12.336l-7.856,7.856L11.669,9.643l2.8-2.8L5.793.006,0,5.8l6.838,8.675,2.8-2.8,10.55,10.55L13.251,29.16a10.192,10.192,0,1,0,6.7,6.7l6.935-6.935L30.158,32.2l-3.271,3.271L38.729,47.309A6.063,6.063,0,1,0,47.3,38.735ZM3.838,6.026,6.02,3.844,10.148,7.1,7.093,10.154ZM33.4,13.076l-.343-.876a6.809,6.809,0,0,1,6.45-9.3L36.63,5.781l1.415,5.282,5.282,1.415L46.2,9.6a6.809,6.809,0,0,1-9.3,6.45l-.876-.343-9.149,9.149-2.632-2.632ZM16.585,35.156l.375.891a7.336,7.336,0,1,1-3.9-3.9l.891.375,8.266-8.266,2.632,2.632Zm18.876-4.2,2.633,2.633L33.585,38.1l-2.632-2.632Zm9.809,14.319a3.189,3.189,0,0,1-4.509,0l-5.144-5.144,4.509-4.509,5.144,5.144a3.192,3.192,0,0,1,0,4.509Z" transform="translate(0 0)" fill="none" stroke="#434241" stroke-width="1.5"/>
    <path id="Path_1035" data-name="Path 1035" d="M61.936,356.444a4.736,4.736,0,1,0,3.349,1.387A4.7,4.7,0,0,0,61.936,356.444Zm1.316,6.052a1.861,1.861,0,1,1,0-2.633A1.849,1.849,0,0,1,63.252,362.5Z" transform="translate(-51.72 -322.287)" fill="none" stroke="#434241" stroke-width="1.5"/>
  </g>
</svg>
