<svg xmlns="http://www.w3.org/2000/svg" viewBox="0 0 52.603 52.459">
  <path id="preventive-maintenance" d="M118.253,107.024c-.461.006-.851.013-1.2.019-.832.019-1.469.032-2.431-.006.091-.6.331-2.021.962-5.38a.989.989,0,0,0-.611-1.113,1,1,0,0,0-1.222.373c-1.5,2.22-4.251,6.262-5.752,8.347a1.007,1.007,0,0,0,.838,1.59c.39-.006.747-.013,1.092-.026.591-.019,1.157-.032,1.872-.026-.383.907-.793,1.963-1.215,3.07-.325.843-.656,1.718-1.02,2.619a.99.99,0,0,0,.4,1.223,1.017,1.017,0,0,0,1.287-.174c2.788-3.025,4.732-5.271,7.78-8.868a1,1,0,0,0-.786-1.647Zm.046,1.023c-3.042,3.585-4.979,5.824-7.754,8.836-.013.019-.019.026-.046.006s-.026-.026-.013-.045c.364-.907.7-1.783,1.027-2.632.526-1.371,1.027-2.671,1.482-3.681a.481.481,0,0,0-.032-.45.489.489,0,0,0-.4-.225c-.436-.013-.825-.019-1.176-.019-.546,0-1.02.013-1.475.026-.344.013-.7.019-1.079.026a.031.031,0,0,1-.032-.019c-.013-.019,0-.032,0-.039,1.508-2.1,4.264-6.146,5.772-8.372.013-.019.019-.026.045-.013s.026.019.026.045c-.3,1.577-.539,2.877-.708,3.855-.11.631-.195,1.12-.247,1.467-.091.611-.123.792.033.985a.492.492,0,0,0,.357.187c1.3.071,2.021.051,3.009.032.344-.006.728-.019,1.183-.019.013,0,.026,0,.033.019A.028.028,0,0,1,118.3,108.047Zm14.6-23.418a.492.492,0,0,0-.6-.032q-1.54,1.072-2.97,2.053T126.352,88.7a.447.447,0,0,0-.175.232c-.266.727-.533,1.487-.793,2.22-.247.7-.5,1.422-.754,2.111-.435.431-2.658,2.651-5.174,5.174a13.546,13.546,0,0,0-9.535-1.081,12.683,12.683,0,0,0-1.787.611l-1.956-1.879a10.045,10.045,0,0,0,1.4-3.482,7.814,7.814,0,0,0-.221-4.132c-.845-2.342-3.146-5.1-5.915-5.843-2.411-.65-4.68-.045-6.948,1.834a.476.476,0,0,0-.013.727c.839.747,1.41,1.306,1.963,1.847.52.508,1.053,1.03,1.807,1.705-.13.862-.292,1.66-.455,2.433s-.318,1.538-.448,2.388c-.8.122-1.508.29-2.2.457a17.069,17.069,0,0,1-2.977.521c-.617-.579-1.15-1.1-1.67-1.6-.559-.541-1.137-1.1-1.826-1.744a.5.5,0,0,0-.364-.129.49.49,0,0,0-.344.167,6.839,6.839,0,0,0-.812,7.259,10.139,10.139,0,0,0,5.876,5.148,8.063,8.063,0,0,0,3.926,0,9.79,9.79,0,0,0,2.938-1.146l1.956,2.014a.091.091,0,0,0-.013.039,12.42,12.42,0,0,0-.461,7.2c-1.287,1.281-3.113,3.076-4.888,4.814-2.268,2.227-4.621,4.531-5.856,5.785a5.955,5.955,0,0,0-1.553,2.149,4.112,4.112,0,0,0,.357,3.218,11.45,11.45,0,0,0,1.859,2.445c1.456,1.59,3.191,3.288,5.453,3.372h.123a4.143,4.143,0,0,0,2.957-1.48c1.02-1.036,2.177-2.175,3.4-3.385,2.418-2.388,5.141-5.084,7.527-7.626.305.071.617.129.929.174a13.248,13.248,0,0,0,1.95.142,12.9,12.9,0,0,0,3.49-.476c2.424,2.613,5.648,6.056,9.334,9.827.033.039.071.077.11.116a6.3,6.3,0,0,0,4.732,2.227,7.8,7.8,0,0,0,1.963-.264,5.484,5.484,0,0,0,3.763-4.614c.24-1.924-.578-3.758-2.489-5.618-2.905-2.819-5.824-5.573-9.425-8.894a12.209,12.209,0,0,0,.955-5.5,11.848,11.848,0,0,0-1.748-5.406c2.4-2.445,4.53-4.633,4.933-5.052.65-.27,1.391-.547,2.106-.817.76-.283,1.547-.579,2.236-.875a.439.439,0,0,0,.208-.167,62.762,62.762,0,0,0,3.783-6.2.475.475,0,0,0-.078-.547A56.3,56.3,0,0,0,132.9,84.629Zm-32.6,16.919a.491.491,0,0,0-.643-.051,8.52,8.52,0,0,1-6.35,1.236A9.207,9.207,0,0,1,88.03,98.1a6.253,6.253,0,0,1-.552-3.25,5.493,5.493,0,0,1,.91-2.568c.513.489.975.933,1.417,1.364.559.547,1.144,1.107,1.839,1.757A.492.492,0,0,0,92,95.53a17.83,17.83,0,0,0,3.354-.56,24.245,24.245,0,0,1,2.47-.489.487.487,0,0,0,.422-.412c.13-.959.312-1.834.487-2.684s.364-1.757.5-2.748a.5.5,0,0,0-.156-.425c-.838-.747-1.41-1.306-1.963-1.847-.462-.45-.936-.92-1.573-1.5a6.2,6.2,0,0,1,5.629-1.3,8.765,8.765,0,0,1,5.252,5.232,8.17,8.17,0,0,1-1.287,7.072.484.484,0,0,0,.052.624c.65.631,1.306,1.261,2,1.924a11.568,11.568,0,0,0-4.933,5.135C101.588,102.873,100.945,102.2,100.295,101.547ZM102.524,128c-1.228,1.21-2.385,2.355-3.412,3.391a3.155,3.155,0,0,1-2.34,1.191c-1.878-.071-3.445-1.615-4.764-3.057A10.438,10.438,0,0,1,90.3,127.3a3.213,3.213,0,0,1-.305-2.471,5.3,5.3,0,0,1,1.326-1.789c1.228-1.248,3.575-3.552,5.843-5.773,1.6-1.57,3.243-3.185,4.5-4.428a8.761,8.761,0,0,0,1.671,3.1s.167.243.211.3a18.54,18.54,0,0,0,4.668,4.4,1.416,1.416,0,0,0,1.457.149C107.392,123.19,104.819,125.738,102.524,128Zm31.309-4.736c1.683,1.635,2.4,3.211,2.2,4.814a4.5,4.5,0,0,1-3.042,3.8,5.357,5.357,0,0,1-5.739-1.692c-.039-.045-.078-.084-.117-.122-3.529-3.61-6.636-6.924-9.022-9.492.28-.109.552-.219.819-.347l1.832-1.422,1.544-1.389,2-2.163c.124-.212.241-.425.357-.644C128.153,117.823,131,120.513,133.833,123.267Zm-8.762-15.02a11.454,11.454,0,0,1-1.605,6.513,11.58,11.58,0,0,1-4.94,4.582,11.959,11.959,0,0,1-12.837-1.918,11.668,11.668,0,0,1-2.944-12.517l.117-.29a.108.108,0,0,0,.013-.032,10.583,10.583,0,0,1,5.33-5.579l.078-.039a12.083,12.083,0,0,1,1.885-.669,12.586,12.586,0,0,1,9.145,1.165.023.023,0,0,1,.013.006,13.03,13.03,0,0,1,2.021,1.358A10.692,10.692,0,0,1,125.072,108.247ZM133.066,95.2c-.637.264-1.365.541-2.073.8-.76.283-1.547.579-2.236.875a.554.554,0,0,0-.162.109c-.026.026-2.262,2.33-4.855,4.975a10.6,10.6,0,0,0-1.781-1.866,14.076,14.076,0,0,0-1.631-1.152c2.71-2.716,5.037-5.032,5.063-5.058a.418.418,0,0,0,.111-.174c.266-.727.533-1.487.793-2.22.241-.682.494-1.39.741-2.072.981-.682,1.924-1.332,2.84-1.963q1.287-.888,2.665-1.841a53.941,53.941,0,0,1,4,3.906A64.46,64.46,0,0,1,133.066,95.2Z" transform="translate(-85.698 -81.735)" fill="#424244" stroke="#424244" stroke-width="1.3"/>
</svg>
