<svg xmlns="http://www.w3.org/2000/svg" viewBox="0 0 63.791 45.561">
  <g id="Group_633" data-name="Group 633" transform="translate(-93.15 -37.747)">
    <path id="Path_405" data-name="Path 405" d="M125.046,70.6v9.156a2.781,2.781,0,0,1-2.8,2.8H96.7a2.782,2.782,0,0,1-2.8-2.8V41.3a2.782,2.782,0,0,1,2.8-2.8h25.548a2.415,2.415,0,0,1,1.2.28" fill="none" stroke="#434241" stroke-linecap="round" stroke-linejoin="round" stroke-miterlimit="10" stroke-width="1.5"/>
    <path id="Path_406" data-name="Path 406" d="M202.946,79.761a2.781,2.781,0,0,1-2.8,2.8H174.6a2.782,2.782,0,0,1-2.8-2.8V41.3a2.782,2.782,0,0,1,2.8-2.8h25.548a2.781,2.781,0,0,1,2.8,2.8Z" transform="translate(-46.754 -0.001)" fill="none" stroke="#434241" stroke-linecap="round" stroke-linejoin="round" stroke-miterlimit="10" stroke-width="1.5"/>
    <line id="Line_113" data-name="Line 113" x2="20.151" transform="translate(99.377 46.695)" fill="none" stroke="#434241" stroke-linecap="round" stroke-linejoin="round" stroke-miterlimit="10" stroke-width="1.5"/>
    <line id="Line_114" data-name="Line 114" x2="20.151" transform="translate(99.377 50.853)" fill="none" stroke="#434241" stroke-linecap="round" stroke-linejoin="round" stroke-miterlimit="10" stroke-width="1.5"/>
    <line id="Line_115" data-name="Line 115" x2="20.151" transform="translate(99.377 54.971)" fill="none" stroke="#434241" stroke-linecap="round" stroke-linejoin="round" stroke-miterlimit="10" stroke-width="1.5"/>
    <line id="Line_116" data-name="Line 116" x2="8.236" transform="translate(140.998 72.683)" fill="none" stroke="#434241" stroke-linecap="round" stroke-linejoin="round" stroke-miterlimit="10" stroke-width="1.5"/>
    <line id="Line_117" data-name="Line 117" y1="6.877" transform="translate(106.974 68.485)" fill="none" stroke="#434241" stroke-linecap="round" stroke-linejoin="round" stroke-miterlimit="10" stroke-width="1.5"/>
    <path id="Path_407" data-name="Path 407" d="M126.6,99.277V93.6h4.958v14.833h-3.079" transform="translate(-19.626 -33.072)" fill="none" stroke="#434241" stroke-linecap="round" stroke-linejoin="round" stroke-miterlimit="10" stroke-width="1.5"/>
    <path id="Path_408" data-name="Path 408" d="M119.1,110v7.077h-5V108h5" transform="translate(-12.124 -41.714)" fill="none" stroke="#434241" stroke-linecap="round" stroke-linejoin="round" stroke-miterlimit="10" stroke-width="1.5"/>
    <path id="Path_409" data-name="Path 409" d="M140.679,118.1H144v5.038h-5" transform="translate(-27.068 -47.776)" fill="none" stroke="#434241" stroke-linecap="round" stroke-linejoin="round" stroke-miterlimit="10" stroke-width="1.5"/>
    <line id="Line_118" data-name="Line 118" y1="11.715" transform="translate(135.041 54.051)" fill="none" stroke="#434241" stroke-linecap="round" stroke-linejoin="round" stroke-miterlimit="10" stroke-width="1.5"/>
    <path id="Path_410" data-name="Path 410" d="M210.836,82.8v9.556H201.6" transform="translate(-64.64 -26.59)" fill="none" stroke="#434241" stroke-linecap="round" stroke-linejoin="round" stroke-miterlimit="10" stroke-width="1.5"/>
    <line id="Line_119" data-name="Line 119" y2="1.04" transform="translate(146.196 55.171)" fill="none" stroke="#434241" stroke-linecap="round" stroke-linejoin="round" stroke-miterlimit="10" stroke-width="1.5"/>
    <path id="Path_411" data-name="Path 411" d="M196.8,73h11.155v2.879" transform="translate(-61.759 -20.708)" fill="none" stroke="#434241" stroke-linecap="round" stroke-linejoin="round" stroke-miterlimit="10" stroke-width="1.5"/>
    <path id="Path_412" data-name="Path 412" d="M207.955,65.018H196.8V59.7h2.239" transform="translate(-61.759 -12.725)" fill="none" stroke="#434241" stroke-linecap="round" stroke-linejoin="round" stroke-miterlimit="10" stroke-width="1.5"/>
    <path id="Path_413" data-name="Path 413" d="M206.9,59.7h7.117v3.518" transform="translate(-67.821 -12.725)" fill="none" stroke="#434241" stroke-linecap="round" stroke-linejoin="round" stroke-miterlimit="10" stroke-width="1.5"/>
    <g id="Group_367" data-name="Group 367" transform="translate(137.72 55.011)">
      <line id="Line_120" data-name="Line 120" y2="8.036" fill="none" stroke="#434241" stroke-linecap="round" stroke-linejoin="round" stroke-miterlimit="10" stroke-width="1.5"/>
      <line id="Line_121" data-name="Line 121" y2="8.036" transform="translate(2.879)" fill="none" stroke="#434241" stroke-linecap="round" stroke-linejoin="round" stroke-miterlimit="10" stroke-width="1.5"/>
      <line id="Line_122" data-name="Line 122" y2="8.036" transform="translate(5.797)" fill="none" stroke="#434241" stroke-linecap="round" stroke-linejoin="round" stroke-miterlimit="10" stroke-width="1.5"/>
    </g>
    <path id="Path_414" data-name="Path 414" d="M192.3,88.5v5.2h-3V88.5h1.159" transform="translate(-57.258 -30.011)" fill="none" stroke="#434241" stroke-linecap="round" stroke-linejoin="round" stroke-miterlimit="10" stroke-width="1.5"/>
    <line id="Line_123" data-name="Line 123" y1="8.516" transform="translate(146.196 55.171)" fill="none" stroke="#434241" stroke-linecap="round" stroke-linejoin="round" stroke-miterlimit="10" stroke-width="1.5"/>
    <path id="Path_415" data-name="Path 415" d="M224.7,79.06V78.3h2.959v9.276h-1.279" transform="translate(-78.504 -23.889)" fill="none" stroke="#434241" stroke-linecap="round" stroke-linejoin="round" stroke-miterlimit="10" stroke-width="1.5"/>
    <path id="Path_416" data-name="Path 416" d="M194.258,106.7h12.114v9.076H189.1V106.7h3.079" transform="translate(-57.138 -40.934)" fill="none" stroke="#434241" stroke-linecap="round" stroke-linejoin="round" stroke-miterlimit="10" stroke-width="1.5"/>
    <circle id="Ellipse_177" data-name="Ellipse 177" cx="2.039" cy="2.039" r="2.039" transform="translate(134.761 68.525)" fill="none" stroke="#434241" stroke-linecap="round" stroke-linejoin="round" stroke-miterlimit="10" stroke-width="1.5"/>
    <circle id="Ellipse_178" data-name="Ellipse 178" cx="1.119" cy="1.119" r="1.119" transform="translate(144.596 68.325)" fill="none" stroke="#434241" stroke-linecap="round" stroke-linejoin="round" stroke-miterlimit="10" stroke-width="1.5"/>
    <path id="Path_417" data-name="Path 417" d="M202.4,56.7v-2h6.637v.32" transform="translate(-65.12 -9.724)" fill="none" stroke="#434241" stroke-linecap="round" stroke-linejoin="round" stroke-miterlimit="10" stroke-width="1.5"/>
  </g>
</svg>
