<svg xmlns="http://www.w3.org/2000/svg" viewBox="0 0 43.296 52.088">
  <g id="Group_57" data-name="Group 57" transform="translate(-70.373 -233.799)">
    <path id="Path_605" data-name="Path 605" d="M40.454,45.99V6.923a4.545,4.545,0,0,0-.977-2.93L37.849,1.714c-.651-.651-.977-.651-.977.326V44.363a1.538,1.538,0,0,1-1.628,1.628H2.04c-.977,0-.977.326-.326.977l1.953,1.3a6.18,6.18,0,0,0,2.93.977H38.5a1.538,1.538,0,0,0,1.628-1.628h0A5.7,5.7,0,0,0,40.454,45.99Z" transform="translate(73.216 236.642)" fill="#424244"/>
    <path id="Path_606" data-name="Path 606" d="M35.158,0H1.628A1.538,1.538,0,0,0,0,1.628V43.95a1.538,1.538,0,0,0,1.628,1.628H35.158a1.538,1.538,0,0,0,1.628-1.628V1.628A1.744,1.744,0,0,0,35.158,0ZM30.275,20.836a1.538,1.538,0,0,1-1.628,1.628H8.139a1.538,1.538,0,0,1-1.628-1.628v-1.3a1.538,1.538,0,0,1,1.628-1.628H28.648a1.538,1.538,0,0,1,1.628,1.628Zm0-9.116a1.538,1.538,0,0,1-1.628,1.628H8.139A1.538,1.538,0,0,1,6.511,11.72v-.977A1.538,1.538,0,0,1,8.139,9.116H28.648a1.538,1.538,0,0,1,1.628,1.628Z" transform="translate(70.373 233.799)" fill="#424244"/>
  </g>
</svg>
