<svg xmlns="http://www.w3.org/2000/svg" viewBox="0 0 45 45">
  <g id="redline-stock" transform="translate(0.002 0.002)">
    <path id="Path_792" data-name="Path 792" d="M42.968,0H2.028A1.915,1.915,0,0,0,0,2.028v40.94a1.915,1.915,0,0,0,2.027,2.027h40.94a1.915,1.915,0,0,0,2.027-2.027V2.028A1.915,1.915,0,0,0,42.968,0Zm-2.027,40.94H4.055V4.055H40.941Z" transform="translate(0 0)" fill="#424244"/>
    <path id="Path_793" data-name="Path 793" d="M2.552,30.036c.4.4.8.4,1.595.4s1.2,0,1.595-.4L16.5,19.28,27.26,30.036c.4.4.8.4,1.595.4s.8,0,1.2-.4a1.93,1.93,0,0,0,0-2.789L19.29,16.495,30.046,5.331a1.93,1.93,0,0,0,0-2.789,1.931,1.931,0,0,0-2.79,0L16.5,13.308,5.332,2.552a1.931,1.931,0,0,0-2.79,0,1.93,1.93,0,0,0,0,2.789L13.312,16.1,2.552,27.251a1.93,1.93,0,0,0,0,2.785Z" transform="translate(6.198 6.198)" fill="#424244"/>
  </g>
</svg>
