<svg xmlns="http://www.w3.org/2000/svg" viewBox="0 0 78.938 46.757">
  <g id="redline-request" transform="translate(1405.883 -834.845)">
    <path id="Path_1279" data-name="Path 1279" d="M-1342.392,906.743l-4.775-29.666H-1313l-4.763,29.847h-22.223" transform="translate(-36.617 -26.222)" fill="none" stroke="#434241" stroke-linecap="round" stroke-linejoin="round" stroke-width="1.3"/>
    <g id="Group_2880" data-name="Group 2880" transform="translate(-1379.693 835.495)">
      <line id="Line_738" data-name="Line 738" y1="3.287" x2="8.661" transform="translate(16.453 26.932)" fill="none" stroke="#434241" stroke-linecap="round" stroke-linejoin="round" stroke-width="1.3"/>
      <line id="Line_739" data-name="Line 739" x1="4.663" y1="12.286" transform="translate(2.811 13.065)" fill="none" stroke="#434241" stroke-linecap="round" stroke-linejoin="round" stroke-width="1.3"/>
      <path id="Path_1280" data-name="Path 1280" d="M-1304.534,864.972l3.8,10.027-9.665,3.668" transform="translate(1319.888 -854.083)" fill="none" stroke="#434241" stroke-linecap="round" stroke-linejoin="round" stroke-width="1.3"/>
      <line id="Line_740" data-name="Line 740" x2="0.419" y2="1.103" transform="translate(14.936 9.785)" fill="none" stroke="#434241" stroke-linecap="round" stroke-linejoin="round" stroke-width="1.3"/>
      <path id="Path_1281" data-name="Path 1281" d="M-1330.4,858.253l11.686-4.436,1.145,3.017" transform="translate(1332.504 -847.049)" fill="none" stroke="#434241" stroke-linecap="round" stroke-linejoin="round" stroke-width="1.3"/>
      <path id="Path_1282" data-name="Path 1282" d="M-1322.3,850.4l-11.686,4.436-2.106-5.545,2.359-.9" transform="translate(1336.095 -843.627)" fill="none" stroke="#434241" stroke-linecap="round" stroke-linejoin="round" stroke-width="1.3"/>
      <path id="Path_1283" data-name="Path 1283" d="M-1324.68,841.641l7.468-2.835,1.393,3.67" transform="translate(1328.897 -837.583)" fill="none" stroke="#434241" stroke-linecap="round" stroke-linejoin="round" stroke-width="1.3"/>
      <g id="Group_2879" data-name="Group 2879" transform="translate(6.005 10.708)">
        <line id="Line_741" data-name="Line 741" x2="3.188" y2="8.4" transform="translate(0 2.303)" fill="none" stroke="#434241" stroke-linecap="round" stroke-linejoin="round" stroke-width="1.3"/>
        <line id="Line_742" data-name="Line 742" x2="3.188" y2="8.4" transform="translate(3.033 1.151)" fill="none" stroke="#434241" stroke-linecap="round" stroke-linejoin="round" stroke-width="1.3"/>
        <line id="Line_743" data-name="Line 743" x2="3.188" y2="8.4" transform="translate(6.066)" fill="none" stroke="#434241" stroke-linecap="round" stroke-linejoin="round" stroke-width="1.3"/>
      </g>
      <path id="Path_1284" data-name="Path 1284" d="M-1329.044,883.482l2.06,5.426-3.13,1.188-2.06-5.426,1.212-.46" transform="translate(1333.623 -865.756)" fill="none" stroke="#434241" stroke-linecap="round" stroke-linejoin="round" stroke-width="1.3"/>
      <line id="Line_744" data-name="Line 744" x1="3.39" y1="8.931" transform="translate(14.936 9.786)" fill="none" stroke="#434241" stroke-linecap="round" stroke-linejoin="round" stroke-width="1.3"/>
      <path id="Path_1285" data-name="Path 1285" d="M-1296.165,858.626l-.3-.78,3.13-1.188,3.686,9.711-1.34.509" transform="translate(1311.101 -848.84)" fill="none" stroke="#434241" stroke-linecap="round" stroke-linejoin="round" stroke-width="1.3"/>
      <path id="Path_1286" data-name="Path 1286" d="M-1319.192,893.65l12.723-4.83,3.617,9.53-18.114,6.875-3.617-9.531,3.22-1.222" transform="translate(1328.835 -869.122)" fill="none" stroke="#434241" stroke-linecap="round" stroke-linejoin="round" stroke-width="1.3"/>
      <path id="Path_1287" data-name="Path 1287" d="M-1307.536,911.059a2.3,2.3,0,0,1-1.334,2.965,2.3,2.3,0,0,1-2.964-1.334,2.3,2.3,0,0,1,1.333-2.965A2.3,2.3,0,0,1-1307.536,911.059Z" transform="translate(1320.891 -882.21)" fill="none" stroke="#434241" stroke-linecap="round" stroke-linejoin="round" stroke-width="1.3"/>
      <path id="Path_1288" data-name="Path 1288" d="M-1282.6,900.465a1.247,1.247,0,0,1-.724,1.607,1.246,1.246,0,0,1-1.607-.723,1.246,1.246,0,0,1,.723-1.608A1.246,1.246,0,0,1-1282.6,900.465Z" transform="translate(1303.881 -875.958)" fill="none" stroke="#434241" stroke-linecap="round" stroke-linejoin="round" stroke-width="1.3"/>
      <path id="Path_1289" data-name="Path 1289" d="M-1331.086,840.259l-.806-2.123,6.956-2.64.13.344" transform="translate(1333.445 -835.495)" fill="none" stroke="#434241" stroke-linecap="round" stroke-linejoin="round" stroke-width="1.3"/>
    </g>
    <line id="Line_745" data-name="Line 745" x1="5.378" y2="5.378" transform="translate(-1358.979 875.305)" fill="none" stroke="#434241" stroke-linecap="round" stroke-linejoin="round" stroke-width="1.3"/>
    <line id="Line_746" data-name="Line 746" x1="10.004" y2="10.004" transform="translate(-1362.816 870.673)" fill="none" stroke="#434241" stroke-linecap="round" stroke-linejoin="round" stroke-width="1.3"/>
    <line id="Line_747" data-name="Line 747" x1="14.538" y2="14.538" transform="translate(-1366.649 866.116)" fill="none" stroke="#434241" stroke-linecap="round" stroke-linejoin="round" stroke-width="1.3"/>
    <line id="Line_748" data-name="Line 748" x1="22.664" transform="translate(-1405.233 874.115)" fill="none" stroke="#434241" stroke-linecap="round" stroke-linejoin="round" stroke-width="1.3"/>
    <line id="Line_749" data-name="Line 749" x1="23.077" transform="translate(-1350.672 874.115)" fill="none" stroke="#434241" stroke-linecap="round" stroke-linejoin="round" stroke-width="1.3"/>
  </g>
</svg>
