<svg xmlns="http://www.w3.org/2000/svg" viewBox="0 0 45 45">
  <g id="return-stock" transform="translate(0.002 0.002)">
    <path id="Path_788" data-name="Path 788" d="M42.967,25.133A1.915,1.915,0,0,0,40.94,27.16V40.942H4.054V4.054H17.431a1.915,1.915,0,0,0,2.027-2.027A1.915,1.915,0,0,0,17.431,0H2.029A1.915,1.915,0,0,0,0,2.029V42.967a1.915,1.915,0,0,0,2.027,2.027H42.967a1.915,1.915,0,0,0,2.027-2.027V27.16a1.915,1.915,0,0,0-2.027-2.027Z" transform="translate(0 0)" fill="#424244"/>
    <path id="Path_789" data-name="Path 789" d="M12.412,23.337l9.214-9.214,5.219,4.8.8-9.214L28.437.1,18.822.9,9.607,2.1l4.8,4.8L5.2,16.125Z" transform="translate(16.157 0.303)" fill="#424244"/>
  </g>
</svg>
