<svg xmlns="http://www.w3.org/2000/svg" viewBox="0 0 47.935 47.631">
  <g id="Group_1029" data-name="Group 1029" transform="translate(-48.432 -285.423)">
    <path id="Path_381" data-name="Path 381" d="M25.071,6.994a.794.794,0,0,0,.9-.9V3.7a.794.794,0,0,0-.9-.9H5.3a.794.794,0,0,0-.9.9V6.1a.794.794,0,0,0,.9.9h7.19a5.711,5.711,0,0,1,5.093,3.3H5.3a.794.794,0,0,0-.9.9v2.4a.794.794,0,0,0,.9.9H17.881a5.757,5.757,0,0,1-5.392,3.894H4.7c-.3,0-.3.3-.3.6v3.894a1.647,1.647,0,0,0,.9,1.5l14.979,9.286c.6.3.9,0,.9-.6V29.162a1.647,1.647,0,0,0-.9-1.5L11.89,22.871h.6a9.691,9.691,0,0,0,9.587-8.088h3a.794.794,0,0,0,.9-.9v-2.7a.794.794,0,0,0-.9-.9h-3a11.625,11.625,0,0,0-1.8-3.3Z" transform="translate(57.214 291.01)" fill="#424244"/>
    <g id="Group_342" data-name="Group 342" transform="translate(48.432 285.423)">
      <path id="Path_318" data-name="Path 318" d="M4.194,46.133a1.415,1.415,0,0,1-1.5,1.5H1.5a1.415,1.415,0,0,1-1.5-1.5V1.5A1.415,1.415,0,0,1,1.5,0H2.7a1.415,1.415,0,0,1,1.5,1.5Z" transform="translate(0 0)" fill="#424244"/>
    </g>
    <g id="Group_343" data-name="Group 343" transform="translate(92.172 285.423)">
      <path id="Path_319" data-name="Path 319" d="M18.794,46.133a1.415,1.415,0,0,1-1.5,1.5H16.1a1.415,1.415,0,0,1-1.5-1.5V1.5A1.415,1.415,0,0,1,16.1,0h1.2a1.415,1.415,0,0,1,1.5,1.5Z" transform="translate(-14.6)" fill="#424244"/>
    </g>
    <g id="Group_344" data-name="Group 344" transform="translate(48.432 328.859)">
      <path id="Path_320" data-name="Path 320" d="M46.435,14.5a1.415,1.415,0,0,1,1.5,1.5v1.2a1.415,1.415,0,0,1-1.5,1.5H1.5A1.415,1.415,0,0,1,0,17.2V16a1.415,1.415,0,0,1,1.5-1.5Z" transform="translate(0 -14.5)" fill="#424244"/>
    </g>
    <g id="Group_345" data-name="Group 345" transform="translate(48.432 285.423)">
      <path id="Path_321" data-name="Path 321" d="M46.435,0a1.415,1.415,0,0,1,1.5,1.5V2.7a1.415,1.415,0,0,1-1.5,1.5H1.5A1.415,1.415,0,0,1,0,2.7V1.5A1.415,1.415,0,0,1,1.5,0Z" transform="translate(0 0)" fill="#424244"/>
    </g>
  </g>
</svg>
