<svg xmlns="http://www.w3.org/2000/svg" viewBox="0 0 47.662 47.662">
  <g id="spares1" transform="translate(0.25 0.25)">
    <path id="Path_1467" data-name="Path 1467" d="M44.734,18.341H40.322a1.694,1.694,0,0,1-1.2-2.892l3.12-3.119a2.43,2.43,0,0,0,0-3.435L38.267,4.919a2.487,2.487,0,0,0-3.435,0L31.713,8.038a1.694,1.694,0,0,1-2.892-1.2V2.428A2.431,2.431,0,0,0,26.393,0H20.769a2.431,2.431,0,0,0-2.428,2.428V6.84a1.694,1.694,0,0,1-2.892,1.2L12.33,4.919a2.487,2.487,0,0,0-3.435,0L4.919,8.9a2.43,2.43,0,0,0,0,3.435l3.12,3.119a1.694,1.694,0,0,1-1.2,2.892H2.428A2.431,2.431,0,0,0,0,20.769v5.624a2.431,2.431,0,0,0,2.428,2.429H6.84a1.694,1.694,0,0,1,1.2,2.892l-3.12,3.119a2.43,2.43,0,0,0,0,3.435L8.9,42.243a2.485,2.485,0,0,0,3.435,0l3.119-3.12a1.694,1.694,0,0,1,2.892,1.2v4.412a2.431,2.431,0,0,0,2.428,2.428h5.624a2.431,2.431,0,0,0,2.428-2.428V40.322a1.694,1.694,0,0,1,2.892-1.2l3.119,3.12a2.487,2.487,0,0,0,3.435,0l3.976-3.976a2.43,2.43,0,0,0,0-3.435l-3.12-3.119a1.694,1.694,0,0,1,1.2-2.892h4.412a2.431,2.431,0,0,0,2.428-2.428V20.769A2.431,2.431,0,0,0,44.734,18.341Zm.681,8.052a.682.682,0,0,1-.681.681H40.322a3.441,3.441,0,0,0-2.433,5.874l3.12,3.119a.682.682,0,0,1,0,.964l-3.976,3.976a.682.682,0,0,1-.964,0l-3.119-3.12a3.441,3.441,0,0,0-5.874,2.433v4.412a.682.682,0,0,1-.681.681H20.769a.682.682,0,0,1-.681-.681V40.322a3.387,3.387,0,0,0-2.124-3.179,3.481,3.481,0,0,0-1.339-.272,3.393,3.393,0,0,0-2.411,1.017l-3.119,3.12a.682.682,0,0,1-.964,0L6.154,37.031a.682.682,0,0,1,0-.964l3.12-3.119A3.44,3.44,0,0,0,6.84,27.075H2.428a.682.682,0,0,1-.681-.681V20.769a.682.682,0,0,1,.681-.681H6.84a3.441,3.441,0,0,0,2.433-5.874l-3.12-3.119a.682.682,0,0,1,0-.964L10.13,6.154a.682.682,0,0,1,.964,0l3.119,3.119A3.441,3.441,0,0,0,20.088,6.84V2.428a.682.682,0,0,1,.681-.681h5.624a.682.682,0,0,1,.682.681V6.84a3.441,3.441,0,0,0,5.874,2.433l3.119-3.119a.682.682,0,0,1,.964,0l3.976,3.976a.682.682,0,0,1,0,.964l-3.12,3.119a3.441,3.441,0,0,0,2.433,5.874h4.412a.681.681,0,0,1,.681.68Z" fill="#424244" stroke="#424244" stroke-width="0.5"/>
    <path id="Path_1468" data-name="Path 1468" d="M25.86,18a7.86,7.86,0,1,0,7.86,7.86A7.869,7.869,0,0,0,25.86,18Zm0,13.974a6.114,6.114,0,1,1,6.114-6.114A6.121,6.121,0,0,1,25.86,31.974Z" transform="translate(-2.279 -2.279)" fill="#424244" stroke="#424244" stroke-width="0.5"/>
  </g>
</svg>
