<svg xmlns="http://www.w3.org/2000/svg" viewBox="0 0 49 49">
  <path id="spares2" d="M36.29-495.81c-.24.19-.24.22-.29,2.62l-.05,2.43-.55.13a21.328,21.328,0,0,0-5.25,2.16l-.6.37-1.67-1.67c-1.54-1.54-1.7-1.67-2.03-1.67s-.52.16-2.82,2.47-2.47,2.48-2.47,2.82.13.49,1.67,2.03l1.67,1.67-.37.6a21.329,21.329,0,0,0-2.16,5.25l-.13.55-2.43.05c-2.4.05-2.43.05-2.62.29-.18.22-.19.44-.19,3.71s.01,3.49.19,3.71c.19.24.22.24,2.62.29l2.43.05.13.55a21.33,21.33,0,0,0,2.16,5.25l.37.6-1.67,1.67c-1.54,1.54-1.67,1.7-1.67,2.03s.16.52,2.35,2.71c1.28,1.29,2.47,2.42,2.62,2.5a.78.78,0,0,0,.5.09,18.6,18.6,0,0,0,1.87-1.71l1.65-1.64.59.36a20.36,20.36,0,0,0,4.94,2.08l.87.23.05,2.42c.05,2.4.05,2.43.29,2.62.22.18.44.19,3.71.19s3.49-.01,3.71-.19c.24-.19.24-.22.29-2.62l.05-2.42.87-.23a20.36,20.36,0,0,0,4.94-2.08l.59-.36,3.5,3.49c3.78,3.77,3.94,3.89,5.19,4.12a3.983,3.983,0,0,0,4.57-4.57c-.23-1.25-.35-1.41-4.12-5.19l-3.49-3.5.36-.59a20.357,20.357,0,0,0,2.08-4.94l.23-.87,2.42-.05c2.4-.05,2.43-.05,2.62-.29.18-.22.19-.44.19-3.71s-.01-3.49-.19-3.71c-.19-.24-.22-.24-2.62-.29l-2.43-.05-.13-.55a21.328,21.328,0,0,0-2.16-5.25l-.37-.6,1.67-1.67c1.54-1.54,1.67-1.7,1.67-2.03s-.16-.52-2.47-2.82-2.48-2.47-2.82-2.47-.49.13-2.03,1.67l-1.67,1.66-.4-.25a20.209,20.209,0,0,0-5-2.14l-1-.27L44-493.19c-.05-2.4-.05-2.43-.29-2.62-.22-.18-.44-.19-3.71-.19S36.51-495.99,36.29-495.81Zm6.11,3.69c0,2.13.01,2.3.2,2.49.22.24.19.23,1.6.57a17.324,17.324,0,0,1,5.31,2.27c1.18.76,1.12.78,3.03-1.11l1.62-1.59,1.67,1.67,1.66,1.67-1.59,1.61c-1.89,1.91-1.87,1.85-1.11,3.03a17.678,17.678,0,0,1,2.27,5.29c.34,1.43.33,1.4.57,1.62.19.19.36.2,2.49.2H62.4v4.8H60.12c-2.13,0-2.3.01-2.49.2-.24.22-.23.19-.57,1.62a17.292,17.292,0,0,1-1.53,4l-.57,1.09-1.17-1.17-1.18-1.17.25-.48a14.978,14.978,0,0,0,1.08-2.96,14.43,14.43,0,0,0-2-11.59,17.164,17.164,0,0,0-3.33-3.49,16.925,16.925,0,0,0-4.06-2.13,11.477,11.477,0,0,0-4.6-.67,10.57,10.57,0,0,0-3.11.27,14.547,14.547,0,0,0-6.98,3.83,14.309,14.309,0,0,0-4.12,8.05,17.505,17.505,0,0,0,.19,5.4,13.994,13.994,0,0,0,3.67,6.73,14.244,14.244,0,0,0,7.53,4.19,18.121,18.121,0,0,0,5.5.05,16.7,16.7,0,0,0,3.52-1.16l.83-.39,1.16,1.17,1.16,1.17-.72.39a18.123,18.123,0,0,1-4.65,1.8c-.37.08-.78.17-.9.2a1.066,1.066,0,0,0-.43.27c-.19.21-.2.35-.2,2.5v2.28H37.6v-2.28c0-2.13-.01-2.3-.2-2.49-.22-.24-.19-.23-1.62-.57a17.677,17.677,0,0,1-5.29-2.27c-1.18-.76-1.12-.78-3.03,1.11l-1.62,1.59-1.67-1.67-1.66-1.67,1.59-1.61c1.89-1.91,1.87-1.85,1.11-3.03a17.707,17.707,0,0,1-2.26-5.26c-.33-1.36-.43-1.63-.66-1.75a16.107,16.107,0,0,0-2.43-.1H17.6v-4.8h2.28c2.13,0,2.3-.01,2.49-.2.24-.22.23-.19.57-1.62a17.678,17.678,0,0,1,2.27-5.29c.76-1.18.78-1.12-1.11-3.03l-1.59-1.62,1.67-1.67,1.67-1.66,1.61,1.59c1.92,1.9,1.84,1.87,3.07,1.09a17.9,17.9,0,0,1,5.47-2.3c1.08-.25,1.38-.37,1.5-.6a16.113,16.113,0,0,0,.1-2.43v-2.26h4.8Zm-.45,7.47a11.38,11.38,0,0,1,3.6,1.14,12.756,12.756,0,0,1,6.23,16.49,2.649,2.649,0,0,1-.37.72c-.14,0-4.4-4.37-4.57-4.7-.16-.3-.19-.54-.17-1.59a8.632,8.632,0,0,0-.46-3.38,8.084,8.084,0,0,0-5.52-5.09,10.814,10.814,0,0,0-3.97-.01,4.064,4.064,0,0,0-1.81.85c-.29.55-.22.65,2.09,2.97l2.2,2.21v2.24H36.96L34.75-475c-2.32-2.31-2.42-2.38-2.97-2.09a4.064,4.064,0,0,0-.85,1.81,10.814,10.814,0,0,0,.01,3.97,8.084,8.084,0,0,0,5.09,5.52,8.632,8.632,0,0,0,3.38.46c1.05-.02,1.29.01,1.59.17.33.17,4.7,4.43,4.7,4.57a9.633,9.633,0,0,1-2.12.88,13.685,13.685,0,0,1-6.07.26,12.869,12.869,0,0,1-10.22-10.94,13.508,13.508,0,0,1-.06-2.2,12.777,12.777,0,0,1,10.96-12.1A15.784,15.784,0,0,1,41.95-484.65Zm-1.9,5.1a7.221,7.221,0,0,1,2.88,1.46,7.036,7.036,0,0,1,1.83,2.82,6.484,6.484,0,0,1,.29,2.47c.02,1.73.09,2.1.57,2.89.12.2,3.84,4,8.28,8.46,8.6,8.64,8.3,8.3,8.3,9.25a2.519,2.519,0,0,1-2.4,2.4c-.95,0-.61.3-9.25-8.3-4.89-4.87-8.28-8.18-8.55-8.33a4.352,4.352,0,0,0-2.7-.52,6.022,6.022,0,0,1-1.85-.1,6.366,6.366,0,0,1-5.12-6.6,6.741,6.741,0,0,1,.12-1.08c.06-.15.39.13,1.94,1.67l1.87,1.86h2.03c2.71,0,2.51.2,2.51-2.51v-2.03l-1.87-1.87c-2-2.02-1.91-1.87-1.18-2.02A7.589,7.589,0,0,1,40.05-479.55Z" transform="translate(-15.5 496.5)" fill="none" stroke="#434241" stroke-width="1"/>
</svg>
