<svg xmlns="http://www.w3.org/2000/svg" viewBox="0 0 43.3 53.262">
  <g id="spare-catalogue" transform="translate(0 0)">
    <g id="Group_522" data-name="Group 522" transform="translate(0 0)">
      <path id="Path_354" data-name="Path 354" d="M40.984,46.953V7.6a4.6,4.6,0,0,0-.974-2.95L38.4,2.357c-.646-.653-.974-.653-.974.329V45.313a1.558,1.558,0,0,1-.446,1.189,1.526,1.526,0,0,1-1.177.452H2.678c-.974,0-.974.329-.325.983l1.939,1.306a6.124,6.124,0,0,0,2.922.984H39.045a1.526,1.526,0,0,0,1.177-.452,1.558,1.558,0,0,0,.446-1.189,5.79,5.79,0,0,0,.317-1.632Z" transform="translate(2.235 2.237)" fill="#424244"/>
      <path id="Path_355" data-name="Path 355" d="M35.415,0H1.641A1.549,1.549,0,0,0,0,1.643V44.271a1.549,1.549,0,0,0,1.638,1.641H35.415a1.549,1.549,0,0,0,1.638-1.641V1.643A1.756,1.756,0,0,0,35.415,0ZM30.5,20.989a1.549,1.549,0,0,1-1.638,1.641H8.2a1.549,1.549,0,0,1-1.638-1.641V19.683A1.549,1.549,0,0,1,8.2,18.043H28.857A1.549,1.549,0,0,1,30.5,19.683Zm0-9.182a1.549,1.549,0,0,1-1.638,1.641H8.2a1.549,1.549,0,0,1-1.638-1.641v-.983A1.549,1.549,0,0,1,8.2,9.183H28.857A1.549,1.549,0,0,1,30.5,10.823Z" transform="translate(0 0)" fill="#424244"/>
    </g>
    <g id="Path_1589" data-name="Path 1589" transform="translate(20.055 29.999)">
      <path id="Path_7" data-name="Path 7" d="M21.519,35.887H19.7a1.856,1.856,0,0,1-1.849-1.86v-.57a8.847,8.847,0,0,1-1.249-.509l-.407.4a1.865,1.865,0,0,1-2.633,0L12.28,32.064a1.865,1.865,0,0,1,0-2.642l.363-.366a8.755,8.755,0,0,1-.54-1.284h-.5a1.858,1.858,0,0,1-1.863-1.849V24.109A1.865,1.865,0,0,1,11.6,22.251h.5a8.922,8.922,0,0,1,.542-1.279l-.376-.366a1.849,1.849,0,0,1-.544-1.316,1.889,1.889,0,0,1,.546-1.321l1.284-1.284a1.9,1.9,0,0,1,2.639,0l.4.4a8.835,8.835,0,0,1,1.249-.507v-.568a1.863,1.863,0,0,1,1.849-1.871h1.817a1.867,1.867,0,0,1,1.856,1.871v.57a8.606,8.606,0,0,1,1.242.507l.4-.4a1.891,1.891,0,0,1,2.635,0l1.284,1.284a1.854,1.854,0,0,1,0,2.637l-.363.363a8.9,8.9,0,0,1,.54,1.279h.5a1.865,1.865,0,0,1,1.871,1.858v1.815A1.863,1.863,0,0,1,29.6,27.771h-.5a8.662,8.662,0,0,1-.542,1.284l.368.372a1.856,1.856,0,0,1,0,2.633l-1.284,1.284a1.867,1.867,0,0,1-2.639,0l-.389-.385a8.86,8.86,0,0,1-1.253.5v.57a1.86,1.86,0,0,1-1.856,1.86Zm-.91-13.562a2.694,2.694,0,1,0,2.729,2.692A2.694,2.694,0,0,0,20.61,22.325Z" transform="translate(-8.988 -13.375)" fill="#424244"/>
      <path id="Path_8" data-name="Path 8" d="M20.108,15.31a1.088,1.088,0,0,0-1.088,1.11v1.147a8,8,0,0,0-2.145.87l-.805-.8a1.131,1.131,0,0,0-1.56,0L13.226,18.92a1.11,1.11,0,0,0,0,1.56l.77.775a7.89,7.89,0,0,0-.916,2.176H12.007a1.088,1.088,0,0,0-1.1,1.088v1.815a1.088,1.088,0,0,0,1.1,1.088H13.08a7.992,7.992,0,0,0,.914,2.176l-.77.775a1.088,1.088,0,0,0,0,1.562l1.284,1.284a1.088,1.088,0,0,0,1.56,0l.805-.8a8,8,0,0,0,2.148.87v1.147a1.088,1.088,0,0,0,1.088,1.1h1.817a1.088,1.088,0,0,0,1.088-1.1V33.292a7.985,7.985,0,0,0,2.141-.87l.8.8a1.088,1.088,0,0,0,1.562,0L28.8,31.936a1.1,1.1,0,0,0,0-1.56l-.77-.777a8.02,8.02,0,0,0,.914-2.176h1.073a1.088,1.088,0,0,0,1.11-1.088V24.521a1.1,1.1,0,0,0-1.11-1.088H28.946a7.97,7.97,0,0,0-.916-2.176l.77-.772a1.088,1.088,0,0,0,0-1.56L27.517,17.64a1.129,1.129,0,0,0-1.56,0l-.805.8a7.981,7.981,0,0,0-2.139-.87V16.42a1.1,1.1,0,0,0-1.088-1.11H20.108m.907,13.573A3.455,3.455,0,1,1,24.5,25.428a3.455,3.455,0,0,1-3.481,3.455m-.907-15.1h1.817a2.628,2.628,0,0,1,2.611,2.633v.03l.322.131.026-.024a2.65,2.65,0,0,1,3.7,0l1.284,1.284a2.624,2.624,0,0,1,.02,3.7c.052.12.1.239.152.361a2.611,2.611,0,0,1,2.6,2.622v1.813a2.624,2.624,0,0,1-2.6,2.611q-.074.187-.157.37a2.626,2.626,0,0,1-.017,3.7L28.581,34.3a2.633,2.633,0,0,1-3.716,0l-.007-.024q-.159.067-.32.131v.033a2.624,2.624,0,0,1-2.611,2.611H20.11A2.611,2.611,0,0,1,17.5,34.438v-.033l-.326-.131-.03.028a2.633,2.633,0,0,1-3.7,0L12.157,33.02a2.628,2.628,0,0,1-.017-3.7q-.081-.183-.152-.37A2.611,2.611,0,0,1,9.394,26.34V24.521a2.626,2.626,0,0,1,2.594-2.611c.048-.122.1-.242.152-.361a2.611,2.611,0,0,1-.751-1.839,2.65,2.65,0,0,1,.77-1.858l1.284-1.284a2.657,2.657,0,0,1,3.716,0l.022.022.326-.131V16.42a2.624,2.624,0,0,1,2.6-2.633Zm.907,13.573a1.932,1.932,0,1,0-1.958-1.932A1.958,1.958,0,0,0,21.015,27.36Z" transform="translate(-9.394 -13.787)" fill="#fff"/>
    </g>
  </g>
</svg>
