<svg xmlns="http://www.w3.org/2000/svg" viewBox="0 0 44.641 48.925">
  <g id="Group_3049" data-name="Group 3049" transform="translate(-49.016 -339.112)">
    <path id="Path_607" data-name="Path 607" d="M5.781,35.471A1.444,1.444,0,0,1,4.252,37H3.029A1.444,1.444,0,0,1,1.5,35.471V1.529A1.444,1.444,0,0,1,3.029,0H4.252A1.444,1.444,0,0,1,5.781,1.529Z" transform="translate(52.101 339.112)" fill="#424244"/>
    <path id="Path_608" data-name="Path 608" d="M14.339,15.9A1.444,1.444,0,0,1,12.81,17.43H8.529A1.444,1.444,0,0,1,7,15.9V1.529A1.444,1.444,0,0,1,8.529,0H12.5a1.444,1.444,0,0,1,1.529,1.529V15.9Z" transform="translate(63.419 339.112)" fill="#424244"/>
    <path id="Path_609" data-name="Path 609" d="M39.722,10.7a1.444,1.444,0,0,1,1.529,1.529v1.223a1.444,1.444,0,0,1-1.529,1.529H3.029A1.444,1.444,0,0,1,1.5,13.452V12.229A1.444,1.444,0,0,1,3.029,10.7Z" transform="translate(52.101 361.131)" fill="#424244"/>
    <path id="Path_610" data-name="Path 610" d="M7.339,0A1.444,1.444,0,0,1,8.868,1.529V2.752A1.444,1.444,0,0,1,7.339,4.281H1.529A1.444,1.444,0,0,1,0,2.752V1.529A1.444,1.444,0,0,1,1.529,0Z" transform="translate(49.016 339.112)" fill="#424244"/>
    <ellipse id="Ellipse_210" data-name="Ellipse 210" cx="4.892" cy="4.893" rx="4.892" ry="4.893" transform="translate(53.601 378.252)" fill="#424244"/>
    <ellipse id="Ellipse_211" data-name="Ellipse 211" cx="4.892" cy="4.893" rx="4.892" ry="4.893" transform="translate(83.871 378.252)" fill="#424244"/>
    <path id="Path_611" data-name="Path 611" d="M16.857,17.737a1.11,1.11,0,0,1-1.835,0C9.542,11.923,4.945,6.569,4.626,6.117S4.32,5.2,5.237,5.2h21.4c.917,0,1.223.612.612,1.223C27.253,6.423,21.444,12.539,16.857,17.737Z" transform="translate(58.147 349.812)" fill="#424244"/>
  </g>
</svg>
