<svg xmlns="http://www.w3.org/2000/svg" viewBox="0 0 45.413 44.858">
  <g id="Scan" transform="translate(-600.6 -450.8)">
    <path id="Path_335" data-name="Path 335" d="M628.351,490.4H627.1a1.392,1.392,0,0,0-1.4,1.392v10.635a1.392,1.392,0,0,0,1.4,1.392h1.247a1.392,1.392,0,0,0,1.4-1.392V491.792A1.392,1.392,0,0,0,628.351,490.4Z" transform="translate(-15.316 -24.286)" fill="#424244"/>
    <path id="Path_336" data-name="Path 336" d="M683.3,503.857h1.248a1.392,1.392,0,0,0,1.4-1.392V491.792a1.392,1.392,0,0,0-1.4-1.392H683.3a1.392,1.392,0,0,0-1.4,1.392v10.635A1.4,1.4,0,0,0,683.3,503.857Z" transform="translate(-49.608 -24.286)" fill="#424244"/>
    <path id="Path_337" data-name="Path 337" d="M647.051,478.5H645.8a1.392,1.392,0,0,0-1.4,1.392v19.8a1.392,1.392,0,0,0,1.4,1.392h1.248a1.392,1.392,0,0,0,1.4-1.392v-19.8A1.391,1.391,0,0,0,647.051,478.5Z" transform="translate(-26.726 -16.988)" fill="#424244"/>
    <path id="Path_338" data-name="Path 338" d="M665.851,478.5H664.6a1.392,1.392,0,0,0-1.4,1.392v19.8a1.392,1.392,0,0,0,1.4,1.392h1.248a1.392,1.392,0,0,0,1.4-1.392v-19.8A1.417,1.417,0,0,0,665.851,478.5Z" transform="translate(-38.198 -16.988)" fill="#424244"/>
    <path id="Path_339" data-name="Path 339" d="M602,464.319h1.248a1.392,1.392,0,0,0,1.4-1.392v-8h8.069a1.392,1.392,0,0,0,1.4-1.392v-1.237a1.392,1.392,0,0,0-1.4-1.392H602a1.392,1.392,0,0,0-1.4,1.392v10.634A1.392,1.392,0,0,0,602,464.319Z" transform="translate(0 -0.061)" fill="#424244"/>
    <path id="Path_340" data-name="Path 340" d="M612.823,541.5h-8.069v-8a1.392,1.392,0,0,0-1.4-1.392H602.1a1.392,1.392,0,0,0-1.4,1.392v10.634a1.392,1.392,0,0,0,1.4,1.392h10.72a1.392,1.392,0,0,0,1.4-1.392v-1.238A1.417,1.417,0,0,0,612.823,541.5Z" transform="translate(-0.061 -49.861)" fill="#424244"/>
    <path id="Path_341" data-name="Path 341" d="M694.523,532.1h-1.247a1.392,1.392,0,0,0-1.4,1.392v8H683.8a1.392,1.392,0,0,0-1.4,1.392v1.237a1.392,1.392,0,0,0,1.4,1.392h10.72a1.392,1.392,0,0,0,1.4-1.392V533.492A1.392,1.392,0,0,0,694.523,532.1Z" transform="translate(-49.913 -49.861)" fill="#424244"/>
    <path id="Path_342" data-name="Path 342" d="M694.523,450.8H683.8a1.392,1.392,0,0,0-1.4,1.392v1.237a1.392,1.392,0,0,0,1.4,1.392h8.069v8.044a1.392,1.392,0,0,0,1.4,1.392h1.247a1.392,1.392,0,0,0,1.4-1.392v-9.4h0v-1.237A1.4,1.4,0,0,0,694.523,450.8Z" transform="translate(-49.913 0)" fill="#424244"/>
  </g>
</svg>
