<svg xmlns="http://www.w3.org/2000/svg" viewBox="0 0 45.039 44.454">
  <g id="Group_2893" data-name="Group 2893" transform="translate(797.597 -1029.454)">
    <path id="Path_341" data-name="Path 341" d="M-779.486,1045.41h-1.236a1.381,1.381,0,0,0-1.39,1.367v7.944h-8.823a1.379,1.379,0,0,0-1.39,1.367v1.238a1.379,1.379,0,0,0,1.379,1.379h11.461a1.379,1.379,0,0,0,1.391-1.367v-10.557a1.379,1.379,0,0,0-1.387-1.367Z" transform="translate(5.022 15.204)" fill="#424244"/>
    <path id="Path_341-2" data-name="Path 341" d="M-785.7,1045.412a1.379,1.379,0,0,0-1.387,1.367v10.557a1.381,1.381,0,0,0,1.39,1.367h11.463a1.379,1.379,0,0,0,1.379-1.379v-1.238a1.381,1.381,0,0,0-1.39-1.367h-8.825v-7.944a1.379,1.379,0,0,0-1.39-1.367h-1.24Z" transform="translate(10.012 15.202)" fill="#424244"/>
    <path id="Path_1317" data-name="Path 1317" d="M-770.879,1033.14h-21.676a1.379,1.379,0,0,0-1.39,1.367v1.238a1.379,1.379,0,0,0,1.379,1.379h21.7a1.379,1.379,0,0,0,1.379-1.379v-1.238A1.381,1.381,0,0,0-770.879,1033.14Z" transform="translate(3.479 3.512)" fill="#424244"/>
    <path id="Path_1318" data-name="Path 1318" d="M-770.879,1036.96h-21.676a1.381,1.381,0,0,0-1.39,1.367v1.238a1.379,1.379,0,0,0,1.378,1.379h21.7a1.379,1.379,0,0,0,1.379-1.379v-1.238A1.381,1.381,0,0,0-770.879,1036.96Z" transform="translate(3.479 7.152)" fill="#424244"/>
    <path id="Path_1319" data-name="Path 1319" d="M-770.879,1040.78h-21.676a1.379,1.379,0,0,0-.979.4,1.377,1.377,0,0,0-.411.972v1.238a1.381,1.381,0,0,0,1.379,1.379h21.7a1.38,1.38,0,0,0,1.379-1.379v-1.239a1.379,1.379,0,0,0-.413-.972,1.377,1.377,0,0,0-.98-.395Z" transform="translate(3.479 10.792)" fill="#424244"/>
    <path id="Path_1320" data-name="Path 1320" d="M-777.072,1033.14h-2.183a1.381,1.381,0,0,0-1.391,1.367v1.238a1.379,1.379,0,0,0,1.379,1.379h2.207a1.379,1.379,0,0,0,1.377-1.379v-1.238a1.378,1.378,0,0,0-1.389-1.367Z" transform="translate(16.152 3.512)" fill="#424244"/>
    <path id="Path_1321" data-name="Path 1321" d="M-777.072,1036.96h-2.183a1.381,1.381,0,0,0-1.391,1.367v1.238a1.379,1.379,0,0,0,1.379,1.379h2.207a1.378,1.378,0,0,0,1.377-1.379v-1.238a1.379,1.379,0,0,0-1.389-1.367Z" transform="translate(16.152 7.152)" fill="#424244"/>
    <path id="Path_1322" data-name="Path 1322" d="M-777.072,1040.78h-2.183a1.379,1.379,0,0,0-1.39,1.367v1.238a1.381,1.381,0,0,0,1.379,1.379h2.207a1.379,1.379,0,0,0,1.377-1.379v-1.238a1.378,1.378,0,0,0-.411-.971,1.378,1.378,0,0,0-.978-.4Z" transform="translate(16.152 10.792)" fill="#424244"/>
    <path id="Path_1323" data-name="Path 1323" d="M-752.559,1030.872a1.389,1.389,0,0,0-.389-.993,1.389,1.389,0,0,0-.978-.425h-.031l-42.25.014a1.377,1.377,0,0,0-.979.395,1.377,1.377,0,0,0-.412.972V1061.2a1.379,1.379,0,0,0,1.379,1.379h42.269a1.378,1.378,0,0,0,.979-.4,1.376,1.376,0,0,0,.411-.972V1030.88Zm-4.017,27.717h-28.7a1.282,1.282,0,0,0-.162.031,1.317,1.317,0,0,0-.151-.031h-8v-25.137l37-.014Z" transform="translate(0 0)" fill="#424244"/>
  </g>
</svg>
