<svg xmlns="http://www.w3.org/2000/svg" viewBox="0 0 63.498 43.828">
  <g id="stock-ordering" transform="translate(-245.6 -477.5)">
    <line id="Line_358" data-name="Line 358" x1="5.326" transform="translate(282.905 478.2)" fill="none" stroke="#434241" stroke-linecap="round" stroke-linejoin="round" stroke-miterlimit="10" stroke-width="1.4"/>
    <g id="Group_634" data-name="Group 634" transform="translate(292.847 493.148)">
      <path id="Path_426" data-name="Path 426" d="M215.4,81.087V75.3h14.806v9.16" transform="translate(-215.4 -75.3)" fill="none" stroke="#434241" stroke-linecap="round" stroke-linejoin="round" stroke-miterlimit="10" stroke-width="1.4"/>
      <path id="Path_427" data-name="Path 427" d="M230.206,99.523v5.645H215.4V98.6" transform="translate(-215.4 -90.327)" fill="none" stroke="#434241" stroke-linecap="round" stroke-linejoin="round" stroke-miterlimit="10" stroke-width="1.4"/>
      <g id="Group_383" data-name="Group 383" transform="translate(0 3.195)">
        <line id="Line_142" data-name="Line 142" y2="2.556" transform="translate(7.172)" fill="none" stroke="#434241" stroke-linecap="round" stroke-linejoin="round" stroke-miterlimit="10" stroke-width="1.4"/>
        <line id="Line_143" data-name="Line 143" y2="2.521" transform="translate(7.172 5.894)" fill="none" stroke="#434241" stroke-linecap="round" stroke-linejoin="round" stroke-miterlimit="10" stroke-width="1.4"/>
        <line id="Line_144" data-name="Line 144" x1="7.172" transform="translate(0 2.592)" fill="none" stroke="#434241" stroke-linecap="round" stroke-linejoin="round" stroke-miterlimit="10" stroke-width="1.4"/>
        <line id="Line_145" data-name="Line 145" x1="4.864" transform="translate(2.308 5.894)" fill="none" stroke="#434241" stroke-linecap="round" stroke-linejoin="round" stroke-miterlimit="10" stroke-width="1.4"/>
        <line id="Line_146" data-name="Line 146" x2="4.19" y2="4.225" transform="translate(7.172)" fill="none" stroke="#434241" stroke-linecap="round" stroke-linejoin="round" stroke-miterlimit="10" stroke-width="1.4"/>
        <line id="Line_147" data-name="Line 147" y1="4.19" x2="4.225" transform="translate(7.172 4.225)" fill="none" stroke="#434241" stroke-linecap="round" stroke-linejoin="round" stroke-miterlimit="10" stroke-width="1.4"/>
      </g>
    </g>
    <g id="Group_635" data-name="Group 635" transform="translate(253.578 514.166)">
      <g id="Group_385" data-name="Group 385" transform="translate(0 0)">
        <circle id="Ellipse_183" data-name="Ellipse 183" cx="3.231" cy="3.231" r="3.231" fill="none" stroke="#434241" stroke-linecap="round" stroke-linejoin="round" stroke-miterlimit="10" stroke-width="1.4"/>
        <circle id="Ellipse_184" data-name="Ellipse 184" cx="3.231" cy="3.231" r="3.231" transform="translate(25.67)" fill="none" stroke="#434241" stroke-linecap="round" stroke-linejoin="round" stroke-miterlimit="10" stroke-width="1.4"/>
      </g>
      <circle id="Ellipse_185" data-name="Ellipse 185" cx="0.817" cy="0.817" r="0.817" transform="translate(2.414 2.414)" fill="#434241"/>
      <circle id="Ellipse_186" data-name="Ellipse 186" cx="0.817" cy="0.817" r="0.817" transform="translate(28.084 2.414)" fill="#434241"/>
    </g>
    <line id="Line_359" data-name="Line 359" x1="20.025" transform="translate(266.218 505.574)" fill="none" stroke="#434241" stroke-linecap="round" stroke-linejoin="round" stroke-miterlimit="10" stroke-width="1.4"/>
    <path id="Path_583" data-name="Path 583" d="M127.8,42.8h14.663l9.267,23.966" transform="translate(133.945 438.809)" fill="none" stroke="#434241" stroke-linecap="round" stroke-linejoin="round" stroke-miterlimit="10" stroke-width="1.4"/>
    <line id="Line_360" data-name="Line 360" y1="15.48" transform="translate(261.745 483.384)" fill="none" stroke="#434241" stroke-linecap="round" stroke-linejoin="round" stroke-miterlimit="10" stroke-width="1.4"/>
    <path id="Path_584" data-name="Path 584" d="M91.7,99.1V91.5h10.793" transform="translate(157.227 407.399)" fill="none" stroke="#434241" stroke-linecap="round" stroke-linejoin="round" stroke-miterlimit="10" stroke-width="1.4"/>
    <path id="Path_585" data-name="Path 585" d="M111.654,122.374H91.7V117.9" transform="translate(157.227 390.373)" fill="none" stroke="#434241" stroke-linecap="round" stroke-linejoin="round" stroke-miterlimit="10" stroke-width="1.4"/>
    <path id="Path_586" data-name="Path 586" d="M127.9,91.5h1.811l4.58,11.93" transform="translate(133.88 407.399)" fill="none" stroke="#434241" stroke-linecap="round" stroke-linejoin="round" stroke-miterlimit="10" stroke-width="1.4"/>
    <line id="Line_361" data-name="Line 361" x1="19.315" transform="translate(268.881 512.746)" fill="none" stroke="#434241" stroke-linecap="round" stroke-linejoin="round" stroke-miterlimit="10" stroke-width="1.4"/>
    <path id="Path_587" data-name="Path 587" d="M196.5,110.3" transform="translate(89.636 395.274)" fill="none" stroke="#434241" stroke-linecap="round" stroke-linejoin="round" stroke-miterlimit="10" stroke-width="1.4"/>
    <path id="Path_588" data-name="Path 588" d="M111.433,55.153a1.18,1.18,0,0,1-.533-.994V48.372a1.182,1.182,0,0,1,1.172-1.172h0a1.182,1.182,0,0,1,1.172,1.172v5.823a1.123,1.123,0,0,1-.6.994" transform="translate(144.844 435.971)" fill="none" stroke="#434241" stroke-linecap="round" stroke-linejoin="round" stroke-miterlimit="10" stroke-width="1.4"/>
    <line id="Line_362" data-name="Line 362" y1="7.278" transform="translate(256.242 491.159)" fill="none" stroke="#434241" stroke-linecap="round" stroke-linejoin="round" stroke-miterlimit="10" stroke-width="1.4"/>
    <path id="Path_589" data-name="Path 589" d="M113.578,73v6.568H112.3" transform="translate(143.941 419.331)" fill="none" stroke="#434241" stroke-linecap="round" stroke-linejoin="round" stroke-miterlimit="10" stroke-width="1.4"/>
    <line id="Line_363" data-name="Line 363" x2="4.864" transform="translate(258.407 508.024)" fill="none" stroke="#434241" stroke-linecap="round" stroke-linejoin="round" stroke-miterlimit="10" stroke-width="1.4"/>
    <line id="Line_364" data-name="Line 364" x2="14.77" transform="translate(269.946 508.024)" fill="none" stroke="#434241" stroke-linecap="round" stroke-linejoin="round" stroke-miterlimit="10" stroke-width="1.4"/>
    <rect id="Rectangle_1678" data-name="Rectangle 1678" width="3.479" height="3.479" transform="translate(252.229 506.249)" fill="none" stroke="#434241" stroke-linecap="round" stroke-linejoin="round" stroke-miterlimit="10" stroke-width="1.4"/>
    <path id="Path_590" data-name="Path 590" d="M85.223,119.213H84.3V113h2.627" transform="translate(162 393.533)" fill="none" stroke="#434241" stroke-linecap="round" stroke-linejoin="round" stroke-miterlimit="10" stroke-width="1.4"/>
    <path id="Path_591" data-name="Path 591" d="M138.137,72.3h7.172a1.243,1.243,0,1,0,0-2.485h-6.923V59.84a1.235,1.235,0,0,0-1.243-1.243,1.187,1.187,0,0,0-1.243,1.065v8.557" transform="translate(128.72 428.621)" fill="none" stroke="#434241" stroke-linecap="round" stroke-linejoin="round" stroke-miterlimit="10" stroke-width="1.4"/>
    <ellipse id="Ellipse_242" data-name="Ellipse 242" cx="2.521" cy="1.03" rx="2.521" ry="1.03" transform="translate(274.559 496.55) rotate(-59.974)" fill="none" stroke="#434241" stroke-linecap="round" stroke-linejoin="round" stroke-miterlimit="10" stroke-width="1.4"/>
    <path id="Path_592" data-name="Path 592" d="M139.767,38.866H124.5V36.7h17.788v2.166h-.213" transform="translate(136.073 442.743)" fill="none" stroke="#434241" stroke-linecap="round" stroke-linejoin="round" stroke-miterlimit="10" stroke-width="1.4"/>
    <path id="Path_593" data-name="Path 593" d="M135.2,97.2h9.48v2.7" transform="translate(129.172 403.723)" fill="none" stroke="#434241" stroke-linecap="round" stroke-linejoin="round" stroke-miterlimit="10" stroke-width="1.4"/>
    <line id="Line_365" data-name="Line 365" y1="6.391" transform="translate(282.373 498.757)" fill="none" stroke="#434241" stroke-linecap="round" stroke-linejoin="round" stroke-miterlimit="10" stroke-width="1.4"/>
    <line id="Line_366" data-name="Line 366" x1="3.444" y1="2.13" transform="translate(279.035 496.414)" fill="none" stroke="#434241" stroke-linecap="round" stroke-linejoin="round" stroke-miterlimit="10" stroke-width="1.4"/>
    <path id="Path_594" data-name="Path 594" d="M208.2,124.6h18.107v2.095H208.2" transform="translate(82.09 386.051)" fill="none" stroke="#434241" stroke-linecap="round" stroke-linejoin="round" stroke-miterlimit="10" stroke-width="1.4"/>
    <path id="Path_595" data-name="Path 595" d="M202.3,65.651V33.2h2.059V65.651" transform="translate(85.896 445)" fill="none" stroke="#434241" stroke-linecap="round" stroke-linejoin="round" stroke-miterlimit="10" stroke-width="1.4"/>
    <line id="Line_367" data-name="Line 367" x1="2.059" transform="translate(288.196 512.746)" fill="none" stroke="#434241" stroke-linecap="round" stroke-linejoin="round" stroke-miterlimit="10" stroke-width="1.4"/>
  </g>
</svg>
