<svg xmlns="http://www.w3.org/2000/svg" viewBox="0 0 45 45">
  <g id="transfer-stock" transform="translate(0.002 0.002)">
    <path id="Path_790" data-name="Path 790" d="M43.3,6.871H37.552V1.719A1.636,1.636,0,0,0,37.087.474,1.584,1.584,0,0,0,35.86,0H1.693A1.584,1.584,0,0,0,.466.474,1.636,1.636,0,0,0,0,1.719v34.7a1.636,1.636,0,0,0,.465,1.246,1.584,1.584,0,0,0,1.227.472h5.75v5.144a1.636,1.636,0,0,0,.465,1.246A1.584,1.584,0,0,0,9.135,45H43.3a1.584,1.584,0,0,0,1.227-.472A1.636,1.636,0,0,0,45,43.277V8.589a1.636,1.636,0,0,0-.465-1.246A1.584,1.584,0,0,0,43.3,6.871Zm-1.688,34.7H10.826V30.233a1.636,1.636,0,0,0-.465-1.246,1.584,1.584,0,0,0-1.227-.472,1.584,1.584,0,0,0-1.227.472,1.636,1.636,0,0,0-.465,1.246V34.7H3.385V3.437H34.168V6.873H30.11a1.823,1.823,0,0,0-1.692,1.718,1.823,1.823,0,0,0,1.692,1.718H41.616Z" transform="translate(0 0)" fill="#424244"/>
    <path id="Path_791" data-name="Path 791" d="M18.884,3.482l-8.293-.691L2.3,2.1l1.037,8.291.691,7.945,4.146-4.145,7.945,7.945,6.22-6.22L14.394,7.972Z" transform="translate(5.354 5.082)" fill="#424244"/>
  </g>
</svg>
