<svg xmlns="http://www.w3.org/2000/svg" viewBox="0 0 60.875 43.378">
  <g id="users" transform="translate(-0.096)">
    <g id="Group_453" transform="translate(11.682 0)">
      <g id="Group_227" transform="translate(9.796)">
        <circle id="Ellipse_163" cx="9.993" cy="9.993" r="9.993" transform="translate(0)" fill="#424244"/>
      </g>
      <g id="Group_228" transform="translate(0 23.106)">
        <path id="Path_308" d="M45.4,20.213C45.4,9.084,44.947,0,25.416,0,4.295,0,5.2,8.857,5.2,20.213Z" transform="translate(-5.197)" fill="#424244"/>
      </g>
    </g>
    <path id="Path_612" data-name="Path 612" d="M15.028,7.578a11.562,11.562,0,0,1,1.136-5,7.254,7.254,0,0,0-3.18-.681,9.084,9.084,0,1,0,0,18.169A9.441,9.441,0,0,0,19.8,17.116,12.273,12.273,0,0,1,15.028,7.578Z" transform="translate(4.835 2.415)" fill="#424244"/>
    <path id="Path_613" data-name="Path 613" d="M10.1,27.906c0-6.132,0-11.81,3.861-15.671.454-.454.908-.681,1.363-1.136C-.8,12.008.105,19.5.105,29.269h10.22Z" transform="translate(0 14.109)" fill="#424244"/>
    <path id="Path_614" data-name="Path 614" d="M21.2,11.2c5.678,4.315,5.678,11.355,5.678,17.942h7.268C34.145,20.057,33.691,12.563,21.2,11.2Z" transform="translate(26.825 14.236)" fill="#424244"/>
    <path id="Path_615" data-name="Path 615" d="M21.851,1.9h-.908a11.8,11.8,0,0,1,1.59,5.678A11.319,11.319,0,0,1,16.4,17.8a9.577,9.577,0,0,0,5.678,2.044,9.111,9.111,0,0,0,9.084-9.084A9.117,9.117,0,0,0,21.851,1.9Z" transform="translate(20.724 2.415)" fill="#424244"/>
  </g>
</svg>
