<svg id="Group_458" data-name="Group 458" xmlns="http://www.w3.org/2000/svg" viewBox="0 0 49.569 51.278">
  <g id="Group_463" data-name="Group 463" transform="translate(0 0)">
    <path id="Path_488" data-name="Path 488" d="M16.745,28.559h.649A14.279,14.279,0,0,0,31.668,14.934,13.5,13.5,0,0,0,27.991,4.769,14.534,14.534,0,0,0,17.826.011,14,14,0,0,0,7.661,3.9,14.026,14.026,0,0,0,2.9,13.636,14.321,14.321,0,0,0,16.745,28.559Zm.433-24.872h.433a10.737,10.737,0,0,1,7.353,3.46,10.983,10.983,0,0,1,2.812,7.57,10.606,10.606,0,1,1-21.2-.865A10.829,10.829,0,0,1,17.177,3.688Z" transform="translate(3.369 0.009)" fill="#424244"/>
    <path id="Path_489" data-name="Path 489" d="M48.013,13.7H21.2C6.056,13.7,0,19.323,0,33.381a1.907,1.907,0,0,0,1.73,1.946,1.907,1.907,0,0,0,1.73-1.946c0-11.679,4.326-16,16.87-16V33.165a1.907,1.907,0,0,0,1.73,1.946H47.8a1.766,1.766,0,0,0,1.73-1.946V15.43A1.426,1.426,0,0,0,48.013,13.7ZM46.067,31.218H24.223V17.16H46.067Z" transform="translate(0 15.95)" fill="#424244"/>
    <path id="Path_490" data-name="Path 490" d="M14.43,20.493H26.109a1.766,1.766,0,0,0,1.73-1.946,1.907,1.907,0,0,0-1.73-1.946H14.43a1.766,1.766,0,0,0-1.73,1.946A1.766,1.766,0,0,0,14.43,20.493Z" transform="translate(14.767 19.322)" fill="#424244"/>
    <path id="Path_491" data-name="Path 491" d="M26.109,19H14.43a1.766,1.766,0,0,0-1.73,1.946,1.907,1.907,0,0,0,1.73,1.946H26.109a1.766,1.766,0,0,0,1.73-1.946A1.907,1.907,0,0,0,26.109,19Z" transform="translate(14.767 22.113)" fill="#424244"/>
  </g>
</svg>
