<svg xmlns="http://www.w3.org/2000/svg" viewBox="0 0 41.769 51.863">
  <g id="Group_448" data-name="Group 448" transform="translate(-0.034 -0.092)">
    <g id="Group_444" data-name="Group 444" transform="translate(2.25 0.092)">
      <path id="Path_478" data-name="Path 478" d="M19.957,37.415h-.765a18.79,18.79,0,0,1-13.01-5.931A18.289,18.289,0,0,1,1.207,18.091,18.79,18.79,0,0,1,7.138,5.081,18.289,18.289,0,0,1,20.531.107a18.79,18.79,0,0,1,13.01,5.931,18.289,18.289,0,0,1,4.974,13.393,18.79,18.79,0,0,1-5.931,13.01A18.117,18.117,0,0,1,19.957,37.415Zm0-34.247A16.37,16.37,0,0,0,9.434,7.186,15.523,15.523,0,0,0,4.651,18.091a15.607,15.607,0,0,0,4.018,11.1,15.489,15.489,0,0,0,21.811.957,15.647,15.647,0,0,0,4.974-10.714h0A15.365,15.365,0,0,0,20.722,3.359,1.446,1.446,0,0,0,19.957,3.168Z" transform="translate(-1.192 -0.092)" fill="#424244"/>
    </g>
    <g id="Group_445" data-name="Group 445" transform="translate(0.034 28.655)">
      <path id="Path_479" data-name="Path 479" d="M14.7,38.322a1.444,1.444,0,0,1-1.339-.765l-4.018-5.74-7.462.765a1.74,1.74,0,0,1-1.531-.765A1.444,1.444,0,0,1,.16,30.286L6.474,15.937a1.583,1.583,0,0,1,2.87,1.339L4.178,29.138l5.74-.574a1.74,1.74,0,0,1,1.531.765l2.87,4.209,5.166-11.671a1.583,1.583,0,0,1,2.87,1.339L16.04,37.557a1.611,1.611,0,0,1-1.339.765Z" transform="translate(-0.034 -15.022)" fill="#424244"/>
    </g>
    <g id="Group_446" data-name="Group 446" transform="translate(19.334 28.655)">
      <path id="Path_480" data-name="Path 480" d="M18.116,38.322h0a1.515,1.515,0,0,1-1.531-.957L10.272,23.016a1.583,1.583,0,1,1,2.87-1.339l5.166,11.671,2.87-4.209a1.74,1.74,0,0,1,1.531-.765l5.74.574L23.282,17.276a1.583,1.583,0,1,1,2.87-1.339l6.314,14.349a1.444,1.444,0,0,1-.191,1.531,2.362,2.362,0,0,1-1.531.765l-7.462-.765-4.018,5.74A1.049,1.049,0,0,1,18.116,38.322Z" transform="translate(-10.122 -15.022)" fill="#424244"/>
    </g>
    <g id="Group_447" data-name="Group 447" transform="translate(10.85 9.147)">
      <path id="Path_481" data-name="Path 481" d="M14.9,5.542c.383-.957,1.148-.957,1.722,0l1.722,3.444A3.455,3.455,0,0,0,21.018,10.9l3.826.574c.957.191,1.339.957.574,1.531L22.74,15.683a3.926,3.926,0,0,0-.957,3.253l.574,3.826c.191.957-.383,1.531-1.339.957L17.574,22a3.659,3.659,0,0,0-3.444,0l-3.444,1.722c-.957.574-1.531,0-1.339-.957l.574-3.826a5.008,5.008,0,0,0-.957-3.253L6.094,13c-.765-.765-.383-1.339.574-1.531l3.826-.574a3.956,3.956,0,0,0,2.679-1.913Z" transform="translate(-5.687 -4.825)" fill="#424244"/>
    </g>
  </g>
</svg>
