<svg xmlns="http://www.w3.org/2000/svg" viewBox="0 0 47.28 49.944">
  <g id="_1774e559f4e1b9450e5ec4d2a0669066" data-name="1774e559f4e1b9450e5ec4d2a0669066" transform="translate(-69.8 -10)">
    <g id="Path_1027" data-name="Path 1027" transform="translate(-0.189 -817.31)" fill="none" stroke-linecap="square">
      <path d="M112.488,877.255l-37.719-.005A4.612,4.612,0,0,1,70,872.826a1.691,1.691,0,0,1,1.753-1.626c.973,0,1.127.346,1.127,1.244,0,1.549.945,1.789,1.643,1.789l37.076.005c.813-.031,2.319-.072,2.319-1.743,0-.9.621-1.289,1.588-1.289a1.694,1.694,0,0,1,1.753,1.626,4.612,4.612,0,0,1-4.77,4.424Z" stroke="none"/>
      <path d="M 112.4885025024414 876.0545043945312 L 112.4883422851562 876.0545043945312 C 114.4567108154297 876.0545043945312 116.0581207275391 874.6083984375 116.0581283569336 872.8309326171875 C 116.0581283569336 872.6001586914062 115.8049087524414 872.4052124023438 115.5051879882812 872.4052124023438 C 115.3074417114258 872.4052124023438 115.1825714111328 872.4305419921875 115.1185302734375 872.4512939453125 C 115.11767578125 872.4633178710938 115.1170959472656 872.4776611328125 115.1170959472656 872.49462890625 C 115.1170959472656 874.35986328125 113.9563522338867 875.3494262695312 111.6670989990234 875.4359130859375 L 111.5979766845703 875.4376831054688 L 74.52249145507812 875.4325561523438 C 72.76885223388672 875.4325561523438 71.67945861816406 874.2872924804688 71.67945861816406 872.4437255859375 C 71.67945861816406 872.4300537109375 71.67941284179688 872.4168701171875 71.67932891845703 872.4041137695312 C 71.41289520263672 872.432861328125 71.19999694824219 872.6143798828125 71.19999694824219 872.8260498046875 C 71.19999694824219 874.6033935546875 72.8013916015625 876.0493774414062 74.76992034912109 876.0493774414062 L 112.4885025024414 876.0545043945312 M 112.4883422851562 877.2545166015625 L 74.76976013183594 877.2493896484375 C 72.13761901855469 877.2493896484375 70 875.2618408203125 70 872.8260498046875 C 70 871.9288330078125 70.78031158447266 871.2001953125 71.75293731689453 871.2001953125 C 72.72555541992188 871.2001953125 72.87945556640625 871.546630859375 72.87945556640625 872.4437255859375 C 72.87945556640625 873.9930419921875 73.82459259033203 874.2325439453125 74.52249145507812 874.2325439453125 L 111.5981521606445 874.2376708984375 C 112.4114151000977 874.206787109375 113.9170989990234 874.1661376953125 113.9170989990234 872.49462890625 C 113.9170989990234 871.5977783203125 114.5380325317383 871.2052001953125 115.5051879882812 871.2052001953125 C 116.4723281860352 871.2052001953125 117.2581253051758 871.93408203125 117.2581253051758 872.8309326171875 C 117.2581100463867 875.26708984375 115.1205215454102 877.2545166015625 112.4883422851562 877.2545166015625 Z" stroke="none" fill="#434241"/>
    </g>
    <g id="Path_1028" data-name="Path 1028" transform="translate(-95.45 -142.925)" fill="none" stroke-linecap="square">
      <path d="M194.836,163.627h-22.4a1.518,1.518,0,1,1,0-3.027h22.4a1.518,1.518,0,1,1,0,3.027Z" stroke="none"/>
      <path d="M 194.8357849121094 162.4273071289062 C 195.0830688476562 162.4273071289062 195.2678375244141 162.2617340087891 195.2678375244141 162.1137084960938 C 195.2678375244141 161.9653472900391 195.0903930664062 161.800048828125 194.8357849121094 161.800048828125 L 172.4320983886719 161.800048828125 C 172.177490234375 161.800048828125 172.0000762939453 161.9653472900391 172.0000762939453 162.1137084960938 C 172.0000762939453 162.2620391845703 172.177490234375 162.4273071289062 172.4320983886719 162.4273071289062 L 194.8357849121094 162.4273071289062 M 194.8357849121094 163.6273040771484 L 172.4320983886719 163.6273040771484 C 171.5309295654297 163.6273040771484 170.8000793457031 162.9494934082031 170.8000793457031 162.1137084960938 C 170.8000793457031 161.2778930664062 171.5309295654297 160.6000518798828 172.4320983886719 160.6000518798828 L 194.8357849121094 160.6000518798828 C 195.7369689941406 160.6000518798828 196.4678344726562 161.2778930664062 196.4678344726562 162.1137084960938 C 196.4678344726562 162.9494934082031 195.7315216064453 163.6273040771484 194.8357849121094 163.6273040771484 Z" stroke="none" fill="#434241"/>
    </g>
    <g id="Path_1029" data-name="Path 1029" transform="translate(-101.026 -243.523)" fill="none" stroke-linecap="square">
      <path d="M194.977,269.729h-16.59a1.569,1.569,0,1,1,0-3.129h16.59a1.569,1.569,0,1,1,0,3.129Z" stroke="none"/>
      <path d="M 194.9768371582031 268.5291748046875 C 195.2379150390625 268.5291748046875 195.4598236083984 268.3608093261719 195.4638366699219 268.1606750488281 C 195.4609222412109 267.9647521972656 195.2390899658203 267.7999877929688 194.9768371582031 267.7999877929688 L 178.3870391845703 267.7999877929688 C 178.123046875 267.7999877929688 177.9000244140625 267.9669799804688 177.9000244140625 268.1646118164062 C 177.9000244140625 268.3588256835938 178.1275939941406 268.5291748046875 178.3870391845703 268.5291748046875 L 194.9768371582031 268.5291748046875 M 194.9768371582031 269.7291564941406 L 178.3870391845703 269.7291564941406 C 177.4583282470703 269.7291564941406 176.7000274658203 269.0309143066406 176.7000274658203 268.1646118164062 C 176.7000274658203 267.2981872558594 177.452880859375 266.6000061035156 178.3870391845703 266.6000061035156 L 194.9768371582031 266.6000061035156 C 195.9055328369141 266.6000061035156 196.6638641357422 267.2981872558594 196.6638641357422 268.1646118164062 C 196.6583251953125 269.0309143066406 195.9055328369141 269.7291564941406 194.9768371582031 269.7291564941406 Z" stroke="none" fill="#434241"/>
    </g>
    <g id="Path_1030" data-name="Path 1030" transform="translate(-95.355 -357.122)" fill="none" stroke-linecap="square">
      <path d="M184.372,389.429H172.387a1.569,1.569,0,1,1,0-3.129h11.985a1.569,1.569,0,1,1,0,3.129Z" stroke="none"/>
      <path d="M 184.3719177246094 388.229248046875 C 184.6359100341797 388.229248046875 184.8589477539062 388.0622863769531 184.8589477539062 387.8646545410156 C 184.8589477539062 387.6670227050781 184.6359100341797 387.5000610351562 184.3719177246094 387.5000610351562 L 172.3870391845703 387.5000610351562 C 172.0957183837891 387.5000610351562 171.9000244140625 387.6885986328125 171.9000244140625 387.8646545410156 C 171.9000244140625 388.0588684082031 172.1275939941406 388.229248046875 172.3870391845703 388.229248046875 L 184.3719177246094 388.229248046875 M 184.3719177246094 389.4292297363281 L 172.3870391845703 389.4292297363281 C 171.4583435058594 389.4292297363281 170.7000274658203 388.7309875488281 170.7000274658203 387.8646545410156 C 170.7000274658203 387.0033569335938 171.4528503417969 386.3000793457031 172.3870391845703 386.3000793457031 L 184.3719177246094 386.3000793457031 C 185.3006134033203 386.3000793457031 186.0589447021484 386.9982299804688 186.0589447021484 387.8646545410156 C 186.0589447021484 388.7309875488281 185.3060760498047 389.4292297363281 184.3719177246094 389.4292297363281 Z" stroke="none" fill="#434241"/>
    </g>
    <g id="Path_1031" data-name="Path 1031" transform="translate(-104.617 -478.409)" fill="none" stroke-linecap="square">
      <path d="M190.188,517.433H182.3a1.671,1.671,0,1,1,0-3.333h7.891a1.671,1.671,0,1,1,0,3.333Z" stroke="none"/>
      <path d="M 190.1879577636719 516.2332763671875 C 190.5115051269531 516.2332763671875 190.7848663330078 516.0196533203125 190.7848663330078 515.7667236328125 C 190.7848663330078 515.5138549804688 190.5115051269531 515.3002319335938 190.1879577636719 515.3002319335938 L 182.2969665527344 515.3002319335938 C 181.9734191894531 515.3002319335938 181.7000579833984 515.5138549804688 181.7000579833984 515.7667236328125 C 181.7000579833984 516.0196533203125 181.9734191894531 516.2332763671875 182.2969665527344 516.2332763671875 L 190.1879577636719 516.2332763671875 M 190.1879577636719 517.4332885742188 L 182.2969665527344 517.4332885742188 C 181.3023681640625 517.4332885742188 180.5000610351562 516.689208984375 180.5000610351562 515.7667236328125 C 180.5000610351562 514.8443603515625 181.3023681640625 514.1002197265625 182.2969665527344 514.1002197265625 L 190.1879577636719 514.1002197265625 C 191.1825866699219 514.1002197265625 191.98486328125 514.8443603515625 191.98486328125 515.7667236328125 C 191.98486328125 516.689208984375 191.1771392822266 517.4332885742188 190.1879577636719 517.4332885742188 Z" stroke="none" fill="#434241"/>
    </g>
    <g id="Path_1032" data-name="Path 1032" transform="translate(0 0)" fill="none" stroke-linecap="square">
      <path d="M71.553,57.656A1.694,1.694,0,0,1,69.8,56.031v-41.6a4.613,4.613,0,0,1,4.77-4.424L112.283,10h.005a4.933,4.933,0,0,1,3.374,1.294,4.239,4.239,0,0,1,1.4,3.129l.022,41.158a1.7,1.7,0,0,1-1.742,1.636h-.011c-.962,0-1.577-1.04-1.588-1.932l.077-2.721v-38.1a1.392,1.392,0,0,0-1.533-1.529h0l-37.719.005a1.659,1.659,0,0,0-1.643,1.83l-.236,40.358c.006.9-.165,2.528-1.132,2.528Z" stroke="none"/>
      <path d="M 71.32521820068359 56.41707992553711 C 71.40755462646484 56.17309951782227 71.48853302001953 55.7174072265625 71.48497772216797 55.13581848144531 L 71.48493194580078 55.12863922119141 L 71.48497772216797 55.12145614624023 L 71.72124481201172 14.76610946655273 C 71.72316741943359 12.7797679901123 73.15241241455078 11.7406177520752 74.56411743164062 11.7406177520752 L 112.2828979492188 11.73551750183105 C 113.9431915283203 11.73551750183105 115.0160064697266 12.80667781829834 115.0160064697266 14.46443748474121 L 115.0155258178711 52.59890747070312 L 114.9394454956055 55.29071807861328 C 114.952033996582 55.65462112426758 115.1936874389648 56.01801681518555 115.3272171020508 56.01801681518555 L 115.330436706543 56.01801681518555 C 115.6303176879883 56.01274108886719 115.8815612792969 55.81734085083008 115.8801574707031 55.58943939208984 L 115.8801345825195 55.58270645141602 L 115.858154296875 14.42366790771484 C 115.858154296875 13.57826805114746 115.4988327026367 12.77943801879883 114.8463973999023 12.17433834075928 C 114.1689376831055 11.54602813720703 113.2604827880859 11.20000743865967 112.2883758544922 11.20000743865967 L 112.2830581665039 11.20000743865967 L 74.56978607177734 11.20509815216064 C 72.60140228271484 11.20509815216064 71.00000762939453 12.6512279510498 71.00000762939453 14.4287576675415 L 71.00000762939453 56.03054809570312 C 71.00000762939453 56.19925308227539 71.13533020019531 56.34882354736328 71.32521820068359 56.41707992553711 M 71.55295562744141 57.65629959106445 C 70.58583831787109 57.65629959106445 69.80000305175781 56.92750930786133 69.80000305175781 56.03054809570312 L 69.80000305175781 14.4287576675415 C 69.80000305175781 11.98758792877197 71.94310760498047 10.00509834289551 74.56978607177734 10.00509834289551 L 112.2883758544922 10.00000762939453 C 113.5632629394531 10.00000762939453 114.7612075805664 10.45867824554443 115.6624069213867 11.29448795318604 C 116.5635986328125 12.13029766082764 117.0581588745117 13.24129772186279 117.0581588745117 14.42366790771484 L 117.0801315307617 55.58206939697266 C 117.0856475830078 56.47902679443359 116.3053436279297 57.20780944824219 115.3381576538086 57.218017578125 L 115.3272171020508 57.218017578125 C 114.3655548095703 57.218017578125 113.7500915527344 56.17834854125977 113.7390823364258 55.28647613525391 L 113.8160018920898 52.56500625610352 L 113.8160018920898 14.46443748474121 C 113.8160018920898 14.14846801757812 113.7830657958984 12.93551826477051 112.2828979492188 12.93551826477051 L 74.56427764892578 12.94061756134033 C 73.86093902587891 12.94061756134033 72.92124176025391 13.42477798461914 72.92124176025391 14.77021789550781 L 72.68495178222656 55.12848663330078 C 72.69046783447266 56.03055953979492 72.52011871337891 57.65629959106445 71.55295562744141 57.65629959106445 Z" stroke="none" fill="#434241"/>
    </g>
    <path id="Path_1033" data-name="Path 1033" d="M418.891,429.8l4.4-1.284a.741.741,0,0,0,.308-.168L436.706,416.2a.663.663,0,0,0,0-.984l-3.022-2.8a.8.8,0,0,0-1.06,0l-13.1,12.15a.717.717,0,0,0-.187.28l-1.379,4.082a.722.722,0,0,0,.934.877m17.321-20.722-1.176,1.086a.663.663,0,0,0,0,.984l3.022,2.8a.8.8,0,0,0,1.061,0l.643-.6a1.936,1.936,0,0,0,0-2.874l-1.511-1.4a1.511,1.511,0,0,0-2.039-.005" transform="translate(-328.989 -378.369)" fill="none" stroke="#434241" stroke-linecap="square" stroke-width="1.2"/>
  </g>
</svg>
