<svg id="tasks-svgrepo-com" xmlns="http://www.w3.org/2000/svg" viewBox="0 0 41.12 54.204">
  <g id="Group_2313" data-name="Group 2313">
    <g id="Group_2312" data-name="Group 2312">
      <path id="Path_1045" data-name="Path 1045" d="M75.937,3.361H65.5V1.266A1.253,1.253,0,0,0,64.264,0h-15.3a1.253,1.253,0,0,0-1.239,1.266V3.361H37.294a1.253,1.253,0,0,0-1.239,1.266V52.938A1.253,1.253,0,0,0,37.294,54.2H75.937a1.253,1.253,0,0,0,1.239-1.266V4.627A1.252,1.252,0,0,0,75.937,3.361ZM50.205,2.532h12.82V6.584H50.205ZM74.7,51.672H38.532V5.893h9.2V7.85a1.253,1.253,0,0,0,1.239,1.266h15.3A1.253,1.253,0,0,0,65.5,7.85V5.893h9.2Z" transform="translate(-36.055)" fill="#424244"/>
      <g id="Rectangle_2361" data-name="Rectangle 2361" transform="translate(5.848 15.253)" fill="none" stroke="#424244" stroke-width="2">
        <rect width="29.708" height="7.476" rx="1" stroke="none"/>
        <rect x="1" y="1" width="27.708" height="5.476" fill="none"/>
      </g>
      <g id="Rectangle_2362" data-name="Rectangle 2362" transform="translate(5.848 26.693)" fill="none" stroke="#424244" stroke-width="2">
        <rect width="29.708" height="7.476" rx="1" stroke="none"/>
        <rect x="1" y="1" width="27.708" height="5.476" fill="none"/>
      </g>
      <g id="Rectangle_2363" data-name="Rectangle 2363" transform="translate(5.848 38.133)" fill="none" stroke="#424244" stroke-width="2">
        <rect width="29.708" height="7.476" rx="1" stroke="none"/>
        <rect x="1" y="1" width="27.708" height="5.476" fill="none"/>
      </g>
    </g>
  </g>
</svg>
